<?xml version="1.0" standalone="no"?>
<!DOCTYPE svg PUBLIC "-//W3C//DTD SVG 1.1//EN" "http://www.w3.org/Graphics/SVG/1.1/DTD/svg11.dtd" >
<svg>
<metadata>
Created by FontForge 20120731 at Mon Apr  6 04:48:10 2020
 By ffonts
Copyright (c) 2020 by Khurasan. All rights reserved.
</metadata>
<defs>
<font id="WashYourHand" horiz-adv-x="299" >
  <font-face 
    font-family="Wash Your Hand"
    font-weight="400"
    font-stretch="normal"
    units-per-em="1000"
    panose-1="0 0 0 0 0 0 0 0 0 0"
    ascent="800"
    descent="-200"
    x-height="513"
    cap-height="641"
    bbox="16 -102.136 818.643 804.148"
    underline-thickness="50"
    underline-position="-50"
    unicode-range="U+000D-20AC"
  />
<missing-glyph 
 />
    <glyph glyph-name=".notdef" 
 />
    <glyph glyph-name="NULL" horiz-adv-x="0" 
 />
    <glyph glyph-name="NULL" horiz-adv-x="0" 
 />
    <glyph glyph-name="nonmarkingreturn" unicode="&#xd;" 
 />
    <glyph glyph-name="space" unicode=" " 
 />
    <glyph glyph-name="E" unicode="E" horiz-adv-x="434" 
d="M16 62q3 29 5.5 57.5t5.5 57.5l6 63q2 21 5 42t5 42q2 17 4 33l4 32t4 31.5t4 31.5q2 14 3.5 28.5t3.5 28.5q2 17 3.5 33t3.5 32q2 19 6 37t11 35q14 38 51 50q20 7 41 11.5t42 6.5h8q35 6 68.5 -1.5t66.5 -18.5q15 -5 28 -20t13 -34.5t-11 -34.5q-13 -16 -31 -23
q-6 -2 -12.5 -3.5t-13.5 -3.5q-21 -5 -42 -8t-42 -3q-7 0 -9.5 -2.5t-3.5 -10.5q-3 -31 -6 -61.5t-7 -61.5l-2 -16l-2 -16q0 -10 9 -8q5 1 10.5 2t10.5 2q46 8 75 -24q13 -14 18 -31t2 -33t-12.5 -30t-23.5 -21q-11 -6 -23 -10t-25 -3q-11 1 -21.5 1.5t-21.5 1.5
q-2 0 -4.5 0.5t-4.5 0.5q-3 0 -6 -2.5t-3 -5.5q-3 -23 -6 -46.5t-2 -46.5q0 -7 6 -7h9t8 1q19 4 38 3.5t39 0.5q10 0 19 -2t18 -5q57 -22 45 -80q-3 -13 -11 -22.5t-19 -16.5q-6 -4 -13 -7t-14 -5q-15 -5 -30.5 -8t-31.5 -3q-17 1 -34.5 -1.5t-34.5 -4.5q-18 -3 -33 -13
q-8 -5 -17.5 -9t-19.5 -7q-18 -5 -36.5 -0.5t-34 15.5t-25 28t-9.5 37v25h-1v0z" />
    <glyph glyph-name="F" unicode="F" horiz-adv-x="444" 
d="M34 440q0 16 -1 31.5t-3 31.5v14q3 21 3 42t1 43l2 16t3 16q7 29 28 43.5t50 7.5q17 -4 32.5 -3.5t32.5 2.5q7 1 13.5 1h13.5q17 0 33 -0.5t33 0.5q20 1 40 -1.5t40 -4.5q8 -1 15.5 -4t15.5 -6q23 -8 31 -36q4 -12 -1 -27q-8 -17 -19 -23t-24 -3q-23 7 -46.5 5.5
t-46.5 0.5q-18 1 -36 0.5t-35 -1.5q-10 0 -14 -2q-7 -2 -5 -8q2 -11 4.5 -21.5t4.5 -21.5q5 -21 5.5 -42t1.5 -42v-8.5t1 -8.5q0 -4 5 -4h11.5t10.5 2q17 4 34 4h34q14 0 28 -6t25.5 -17t18.5 -26.5t7 -33.5q0 -53 -47 -77q-19 -10 -37 -11q-20 0 -38.5 -3.5t-37.5 -1.5
q-12 0 -12 -11q-1 -31 -1.5 -62t-1.5 -62l-2 -30t-5 -30q-3 -11 -7 -20.5t-11 -18.5q-10 -15 -24.5 -22.5t-29.5 -8.5t-29.5 3.5t-24.5 14.5q-14 14 -21.5 30t-11.5 35q-4 17 -5 35t-1 36q1 38 0.5 76.5t-0.5 77.5v140z" />
    <glyph glyph-name="G" unicode="G" horiz-adv-x="569" 
d="M30 292q-1 51 9.5 99.5t30.5 95.5q17 45 46 81q12 17 26.5 31.5t30.5 27.5q39 30 82.5 51t92.5 32q44 8 84 2q23 -4 41.5 -15t34.5 -28q44 -46 38 -110q-1 -16 -11 -34q-8 -12 -23 -15.5t-28 4.5q-10 6 -20 14q-21 13 -47 15q-25 2 -47.5 -5t-44.5 -18
q-38 -19 -64.5 -47.5t-39.5 -70.5q-2 -6 -3.5 -12t-3.5 -12q-5 -17 -8.5 -34.5t-5.5 -35.5q-3 -29 4 -57t21 -54q15 -29 33 -57q9 -14 19 -23q19 -17 46 -6q17 8 29 19t23 25q19 23 29.5 49.5t15.5 55.5v11q0 8 -9 7q-8 0 -16.5 -0.5t-16.5 -0.5q-11 0 -21.5 1t-21.5 5
q-20 7 -35.5 28t-11.5 50q3 23 21.5 40.5t42.5 19.5q15 2 30 1l30 -2q11 0 22 -1.5t22 -3.5q14 -3 26.5 -9t23.5 -17q19 -21 19 -44v-9q-4 -37 -8 -73.5t-14 -72.5q-22 -80 -77 -144q-23 -28 -56 -48q-36 -22 -74 -24.5t-77 11.5q-47 17 -81.5 48t-59.5 73q-20 33 -31 68.5
t-17 73.5q-2 11 -1 22t1 22z" />
    <glyph glyph-name="H" unicode="H" horiz-adv-x="519" 
d="M45 204q0 34 0.5 67.5t-1.5 67.5l-2 56t-6 56q0 3 -0.5 5.5t-0.5 5.5q0 29 -3.5 57.5t-5.5 57.5q-1 22 4.5 42t22.5 36q22 22 49 24t53 -18q39 -31 44 -82q2 -23 4 -44.5t4 -43.5q2 -26 3 -53t5 -54q2 -18 2 -36.5v-37.5q0 -2 0.5 -5t0.5 -6q1 0 2 -1t2 0q13 5 25.5 11
t25.5 11q9 4 18.5 7.5t19.5 5.5q14 4 15 17q11 60 25.5 118t35.5 115q5 14 11 28l12 28q6 10 14 20q11 11 24.5 14.5t25.5 -2.5q14 -6 21.5 -19t5.5 -27q-2 -19 -6 -35q-14 -53 -24.5 -105.5t-21.5 -106.5q-3 -17 -5.5 -35t-2.5 -36q1 -38 1 -75.5v-75.5q0 -17 3 -33
q4 -21 -2 -46q-10 -38 -49 -46q-22 -4 -39.5 6t-25.5 26q-5 11 -9 22.5t-4 24.5q-2 25 -4.5 49t-1.5 49q0 8 -6 6q-20 -11 -39 -20.5t-39 -20.5q-10 -5 -10 -18v-82q0 -9 -1 -18t-4 -18q-8 -28 -29.5 -44.5t-50.5 -17.5q-27 -2 -50 14t-32 43q-4 15 -4 35q-1 32 -0.5 64.5
t0.5 64.5v8v0z" />
    <glyph glyph-name="I" unicode="I" horiz-adv-x="263" 
d="M248 547q-2 -10 -3.5 -20t-3.5 -20q-7 -34 -13 -67.5t-11 -67.5q-3 -26 -6.5 -53t-7.5 -53q-1 -4 -1 -14q-2 -29 -3 -57.5t-3 -57.5q-3 -35 -26 -59q-14 -15 -32.5 -21t-37 -4t-35.5 13t-29 30q-11 19 -11 39q1 25 0 49.5t4 49.5q1 4 1 8v8q2 45 7.5 89t13.5 88
q5 31 10.5 61t13.5 60q3 13 7 25.5t11 23.5q5 6 9.5 12t9.5 11q17 17 36 21t40 -1q17 -4 28.5 -15.5t19.5 -26.5q6 -12 8.5 -24.5t3.5 -26.5z" />
    <glyph glyph-name="J" unicode="J" horiz-adv-x="557" 
d="M527 400q-1 -19 -0.5 -37.5t-1.5 -36.5q-3 -35 -7.5 -69t-15.5 -66q-13 -40 -32.5 -76t-49.5 -66q-50 -50 -124 -58q-8 -1 -16.5 -2t-16.5 -2q-45 0 -85.5 11.5t-76.5 38.5q-46 35 -69 91q-7 16 -7 29q-9 120 59 218q14 21 34 32q33 20 67 -2q19 -13 22 -37
q1 -12 -0.5 -23t-8.5 -22q-1 -2 -1.5 -3.5t-2.5 -3.5q-11 -16 -14 -33t-3 -36q0 -14 4 -27.5t11 -27.5q13 -27 46 -30q9 -1 17.5 -0.5t17.5 0.5q20 0 33 18q11 15 19 31.5t13 34.5t8 36t5 37q3 25 3 49.5t1 49.5q1 24 -2 48t-5 48q-2 13 -1.5 25.5t2.5 25.5q0 19 5 33
q9 27 33 42q17 10 41 8.5t40 -13.5q16 -13 25 -29q12 -20 18.5 -41.5t8.5 -44.5q3 -30 5 -60t2 -60z" />
    <glyph glyph-name="K" unicode="K" horiz-adv-x="569" 
d="M222 202q5 -27 4.5 -56.5t4.5 -59.5q2 -15 2 -30t-6 -30q-9 -24 -29 -39t-45 -17q-31 -2 -53 14.5t-31 36.5q-5 10 -6 21q-5 27 -6 54q-2 35 -4 69t-4 69q-1 20 -1.5 41t-2.5 41q-2 31 -3.5 61.5t-5.5 61.5q-1 2 -1 6q-2 24 -3.5 48.5t-3.5 49.5q-1 17 -2 33t-3 33
q-2 13 0 27q2 32 22.5 54t50.5 27q12 2 23.5 -0.5t22.5 -7.5q31 -14 45 -50q2 -8 3.5 -16t3.5 -16q3 -29 5.5 -57.5t4.5 -57.5q2 -27 4 -54.5t4 -54.5q0 -9 3 -16q0 -3 4 -3q1 0 2 1t3 2q32 22 63 46t60 50q14 12 28.5 24t29.5 23q11 8 21.5 16.5t21.5 16.5q10 7 25 13
q15 7 28 3t24 -15q22 -21 13 -50q-8 -28 -31 -52q-16 -18 -34.5 -33t-38.5 -29q-25 -18 -49.5 -36.5t-49.5 -36.5q-5 -3 -8 -8q-2 -2 1 -5q3 -2 6 -3.5t6 -3.5q25 -13 50 -25.5t50 -25.5q22 -11 41 -25.5t36 -31.5q5 -5 9 -10.5t7 -11.5q6 -11 6 -22.5t-5 -21.5t-14.5 -17
t-22.5 -8q-15 -2 -30 3q-30 11 -54 28q-10 6 -19 13t-19 14q-34 24 -70.5 42.5t-75.5 32.5q-7 1 -7 -4v-35v0z" />
    <glyph glyph-name="L" unicode="L" horiz-adv-x="389" 
d="M51 252q0 27 0.5 53.5t-0.5 53.5q-1 56 -9 112q-2 16 -3.5 31.5t-3.5 31.5q-3 20 -6.5 39t-7.5 39q-3 15 -2.5 30t5.5 30q18 50 72 55q17 2 32 -4.5t28 -17.5q23 -21 32 -54q7 -28 12 -59q9 -56 15 -111q2 -20 3.5 -41t3.5 -41q2 -23 2 -46.5t2 -47.5q2 -31 2 -61.5
t-4 -61.5q-2 -11 10 -9q8 1 15 1.5t15 2.5q28 5 54.5 -8t37.5 -44q13 -38 -4 -67t-52 -38q-22 -5 -41 -5q-26 -1 -50.5 -4t-50.5 -5q-23 0 -43 11t-34 28.5t-22 39.5t-8 43v124v0z" />
    <glyph glyph-name="M" unicode="M" horiz-adv-x="783" 
d="M31 373q0 30 0.5 58.5t-1.5 57.5q-1 21 -0.5 41.5t2.5 41.5q2 17 4 35t7 35q3 13 11 28q17 27 48 27q4 0 7 -0.5t7 0.5q20 2 34.5 -7t25.5 -25q8 -12 15 -24t15 -25q31 -51 60 -103t58 -105q11 -18 20.5 -35.5t20.5 -35.5q1 -2 3 -2t3 2q11 17 20.5 34t20.5 34
q64 105 155 192q5 4 9.5 8t9.5 8q7 6 12 13t10 15q5 9 10 17l10 16t12 14.5t15 11.5q29 18 57.5 7.5t38.5 -41.5q5 -13 7 -26.5t-2 -27.5q-3 -9 -3 -19q0 -20 -4 -39t-10 -39q-24 -72 -39 -151q-3 -17 -5.5 -34t-2.5 -34q0 -13 -0.5 -26t-0.5 -26q-1 -27 2 -53.5t7 -53.5
q4 -29 -11.5 -54.5t-43.5 -36.5q-26 -10 -56 -0.5t-45 35.5q-4 6 -7 13t-5 14q-4 16 -6 32t-4 33q-2 22 -4 43.5t-1 44.5q1 50 9 101q3 23 7 44.5t10 44.5q0 1 -0.5 2t-0.5 3q-2 -1 -4 -3q-8 -9 -15.5 -18.5t-15.5 -19.5q-21 -29 -40 -59t-36 -62q-6 -11 -10.5 -22.5
t-9.5 -22.5q-2 -3 -3 -6.5t-3 -5.5q-8 -14 -17.5 -18t-23.5 -1q-19 4 -34.5 12t-29.5 23q-28 34 -49 73q-9 17 -18.5 33.5t-18.5 33.5l-6 9q-1 0 -1.5 0.5t-1.5 0.5l-1 -2t-1 -5q0 -22 -0.5 -43t1.5 -42q5 -47 3.5 -92.5t0.5 -91.5q1 -28 -11 -54q-16 -36 -52 -48
q-37 -12 -68 13q-36 27 -39 75q-2 14 -1.5 27.5t-0.5 27.5q-2 52 -3 103z" />
    <glyph glyph-name="N" unicode="N" horiz-adv-x="652" 
d="M218 366q6 -26 5.5 -55t4.5 -58q2 -10 1.5 -19.5t0.5 -19.5q1 -26 2 -50.5t3 -50.5q0 -6 0.5 -12.5t-0.5 -12.5q-5 -32 -25.5 -54t-57.5 -24q-43 -3 -70 36q-16 23 -17 49l-6 93q-3 33 -4 66t-6 65q-2 20 -3 40t-3 40t-4.5 39.5t-4.5 39.5q-2 16 -4.5 32t-2.5 33
q0 41 14 75q8 22 31 37q13 9 36 9t39 -13t25.5 -29t17.5 -34q1 -3 1.5 -5.5t1.5 -5.5q2 -14 9 -25.5t16 -22.5q20 -27 40.5 -53.5t40.5 -53.5q18 -26 35.5 -52.5t35.5 -52.5q1 -1 1 -2t2 -3q6 -8 10.5 -17t14.5 -14q1 10 1.5 19t1.5 19q3 46 9 93q5 40 12 76q8 38 18.5 75.5
t25.5 73.5q7 20 24 37q15 15 35.5 20.5t41 1t37.5 -19t25 -39.5q9 -27 -1 -56q-5 -14 -10.5 -28.5t-11.5 -28.5q-25 -52 -42.5 -106.5t-29.5 -111.5q-3 -14 -4.5 -29.5t-2.5 -30.5q-6 -52 -9 -106q-2 -13 -2 -25v-25q-1 -12 -5 -22.5t-13 -19.5q-12 -13 -32.5 -17.5
t-42.5 12.5q-14 11 -24.5 25.5t-18.5 30.5q-13 25 -25.5 50t-24.5 51q-8 18 -16.5 35t-17.5 34q-16 26 -31 52l-30 52q-2 5 -5 8.5t-5 8.5q-1 1 -2 1t-3 1q0 -2 -1 -3t-1 -2v-21v0z" />
    <glyph glyph-name="O" unicode="O" horiz-adv-x="534" 
d="M25 326q2 86 28.5 162.5t82.5 143.5q11 13 22.5 24.5t25.5 20.5q16 10 30 13q15 4 30.5 7t30.5 7q5 1 8.5 2t7.5 0q14 -2 27.5 -3.5t27.5 -4.5q34 -7 58.5 -26.5t44.5 -46.5t31.5 -58.5t17.5 -64.5q3 -16 5.5 -31.5t4.5 -30.5q1 -9 0 -17q-4 -54 -17 -104t-40 -97
q-46 -78 -118 -133q-40 -32 -91 -35q-29 -2 -55.5 4.5t-50.5 23.5t-43 42q-21 27 -36 57t-23 63q-5 20 -7.5 40.5t-1.5 41.5zM406 397q0 14 -0.5 22.5t-1.5 15.5t-3 14t-6 19q-8 23 -20.5 44.5t-30.5 38.5q-26 26 -49 0q-9 -10 -17 -19.5t-17 -19.5q-16 -18 -29 -45
t-22 -57.5t-11.5 -62t2.5 -57.5q8 -40 35 -66q18 -19 45 -10q12 5 23.5 11t21.5 15q39 33 57 74.5t23 82.5z" />
    <glyph glyph-name="P" unicode="P" horiz-adv-x="607" 
d="M310 254q-16 -1 -31.5 1t-30.5 9q-10 3 -10 -8q1 -4 1 -14q2 -18 4.5 -36.5t4.5 -36.5q2 -23 5 -45t3 -45q0 -41 -32 -67q-15 -13 -32.5 -17t-34 -1t-31 11.5t-24.5 22.5q-15 21 -18 48q-2 28 -5 55.5t-6 56.5l-8 64t-7 64q-2 22 -3.5 43.5t-3.5 43.5l-9 96q-1 4 -1 11
q-2 26 -5 52t-5 52q-1 11 -0.5 22t1.5 22q2 12 3 24t6 24q7 16 17.5 27.5t27.5 17.5q35 11 65 -13q5 -5 10.5 -11t10.5 -11q7 -7 14 -3q8 5 16.5 9t17.5 9q43 18 93 20q36 2 71 -3.5t69 -19.5q97 -39 116 -142q10 -50 1 -95.5t-34 -89.5q-41 -72 -109 -113
q-27 -17 -56 -26.5t-61 -7.5zM211 559q0 -9 0.5 -17.5t1.5 -16.5l9 -93q0 -8 0.5 -13t2 -8.5t6 -7t12.5 -8.5l10 -6t10 -5q9 -4 19 -6.5t21 -0.5q20 4 38.5 12t34.5 22q31 27 49 62q13 28 16.5 56.5t-4.5 58.5q-7 31 -39 43q-14 5 -28 7t-28 5q-20 3 -38.5 0t-36.5 -9
q-21 -6 -37 -22q-11 -9 -16.5 -20.5t-3.5 -25.5q1 -3 1 -7z" />
    <glyph glyph-name="Q" unicode="Q" horiz-adv-x="551" 
d="M325 745q71 2 109 -57q22 -33 39.5 -68t25.5 -73q5 -23 8.5 -46t5.5 -47q0 -10 1.5 -20t1.5 -21q1 -41 -3.5 -81t-17.5 -78q-23 -68 -67 -119q-7 -8 -6.5 -9t8.5 -3t15 -3.5t15 -3.5q20 -6 37 -23q11 -11 12 -29.5t-7 -31.5q-7 -11 -20 -17.5t-27 -4.5q-21 3 -42 2
t-43 -3q-26 -2 -52 -8.5t-52 -14.5q-9 -2 -18.5 -4.5t-18.5 -4.5q-9 -3 -19.5 -1.5t-20.5 7t-17 15.5t-10 24q-1 4 1 14q4 12 9 22q4 9 3 11t-10 7t-19 10t-19 12q-24 17 -41 40.5t-29 49.5q-29 63 -30 133v38t2 39q4 32 10.5 62.5t17.5 59.5q13 36 30.5 69.5t40.5 63.5
q15 18 31 34.5t36 29.5q18 11 37 18t41 5q5 0 8.5 0.5t8.5 0.5q4 1 7.5 2t8.5 1q5 1 9.5 1h9.5zM419 403q3 42 -9 83q-8 26 -20 48.5t-28 43.5q-7 9 -14.5 17t-17.5 13q-9 4 -14 -2q-8 -9 -16 -18.5t-17 -18.5q-29 -30 -47 -67q-13 -26 -20.5 -52.5t-12.5 -54.5
q-9 -51 0 -101q5 -26 18 -46t32 -37q25 -22 56 -12q23 7 39 20q34 30 50 68q11 28 17 56.5t4 59.5z" />
    <glyph glyph-name="R" unicode="R" horiz-adv-x="624" 
d="M594 520q-1 -38 -13.5 -70.5t-34.5 -61.5q-39 -50 -100 -76q-11 -5 -11 -7t9 -10l57 -51q5 -4 9.5 -8t8.5 -9q13 -16 17 -36t-1 -39.5t-19 -35.5t-37 -24q-37 -12 -71 9q-10 6 -20 14q-42 37 -84 73t-84 73q-7 6 -10 -3q-1 -3 -1.5 -5.5t-0.5 -5.5q-2 -19 -3.5 -38
t-3.5 -38q-2 -25 -8.5 -48.5t-20.5 -44.5q-9 -15 -24 -23t-32 -9.5t-33.5 4.5t-29.5 21q-10 12 -16 25q-7 18 -10 36.5t0 38.5q1 4 1.5 7t0.5 7q4 33 6.5 65.5t6.5 65.5q3 30 7 60l8 60q2 23 3.5 47.5t3.5 47.5q3 23 3.5 46.5t1.5 47.5q2 20 8.5 38.5t21.5 33.5q23 23 51 22
q12 -2 23 1t22 7q32 12 64 18.5t65 4.5q65 -3 119.5 -27t98.5 -74q16 -18 28.5 -38.5t17.5 -44.5q2 -12 3 -23.5t3 -22.5zM240 577q-1 -32 -3.5 -63t-6.5 -63q-1 -7 8 -9q18 -2 36.5 -1.5t37.5 2.5q17 2 34.5 5.5t34.5 10.5q26 11 44 29t26 46q2 6 2 11t-2 11q-4 14 -13 25
t-21 20q-36 27 -76 33t-83 -2q-14 -2 -16 -4t-2 -19q1 -8 0.5 -16t-0.5 -16z" />
    <glyph glyph-name="S" unicode="S" horiz-adv-x="536" 
d="M298 -5q-51 2 -92.5 22.5t-70.5 64.5q-27 41 -29 93q0 26 23 38q11 6 22 5t22 -7q8 -5 13 -11t10 -13q7 -8 13.5 -17t13.5 -17q20 -23 49 -19q16 3 30 9.5t23 21.5q4 8 5 14t-1 14q-7 26 -22.5 41.5t-38.5 24.5q-14 7 -29 12t-30 11q-22 9 -44 18.5t-42 23.5
q-26 17 -46 38.5t-33 50.5q-14 29 -15 59q-4 50 11.5 93.5t44.5 82.5q33 45 77 69.5t98 33.5q11 2 20.5 3.5t20.5 1.5q38 -1 73 -12t66 -34q29 -22 46 -51q34 -56 1 -111q-13 -24 -43 -32q-14 -5 -29 0q-20 7 -38 17t-31 27q-13 18 -36 23q-2 0 -4 0.5t-4 0.5
q-26 -3 -48.5 -13.5t-36.5 -34.5q-5 -8 -8.5 -17t-6.5 -18q-6 -16 8 -27q11 -8 26 -15q16 -8 32.5 -14.5t33.5 -13.5q20 -8 39 -16.5t38 -19.5q51 -30 82 -79q23 -35 34.5 -73t7.5 -81q-5 -70 -58 -113q-26 -22 -58 -37q-40 -17 -89 -17z" />
    <glyph glyph-name="T" unicode="T" horiz-adv-x="474" 
d="M150 458q-1 30 1.5 59.5t9.5 58.5q2 10 -9 10q-20 0 -40 -0.5t-40 -0.5q-14 0 -24 5q-30 14 -24 44q0 7 6 15q11 15 32 18q4 1 11 1q38 2 75.5 3.5t75.5 3.5q9 0 18 1t18 1q29 2 57.5 2t57.5 -4q8 -2 15 -1.5t15 -0.5q12 -2 19 -4q21 -9 23 -32q1 -10 -4 -17t-13 -13
q-13 -9 -34 -11q-19 -1 -37.5 -4t-38.5 -1q-10 0 -8 -12q4 -27 6.5 -54t2.5 -55v-333q0 -13 -1.5 -25.5t-7.5 -24.5q-24 -47 -75 -48q-31 -1 -53.5 17t-30.5 48q-2 7 -2.5 14.5t-0.5 15.5q-1 25 -1 49.5v49.5v85h1v140z" />
    <glyph glyph-name="U" unicode="U" horiz-adv-x="659" 
d="M31 327q0 17 -1 34.5t1 34.5q2 24 3.5 48t5.5 48l6 51q3 20 6 41t6 41q2 11 6 22t11 21q17 26 39.5 34.5t50.5 3.5q24 -5 42.5 -25.5t20.5 -46.5q1 -12 1 -24.5t-2 -24.5q-3 -22 -7 -43.5t-7 -43.5q-2 -11 -3.5 -22.5t-1.5 -23.5q-3 -44 -6 -87.5t0 -88.5q2 -36 9 -70
q7 -26 24 -49q9 -12 22 -6q7 5 14 9.5t13 9.5q18 17 32.5 36t27.5 39q14 22 25.5 44.5t20.5 45.5q10 23 19 47t20 47q12 27 18 55.5t8 58.5q1 18 3 36t7 35q2 7 5 14t7 13q20 36 61 36q43 0 64 -36q5 -8 7.5 -16t4.5 -17q2 -17 3 -33t3 -33q5 -38 4 -75.5t-1 -75.5
q0 -20 -1 -41t-2 -41q-1 -34 -1 -67.5t-1 -67.5q-1 -19 -1.5 -37t-2.5 -37q-3 -38 -32 -62q-22 -18 -47.5 -19t-48.5 15q-29 20 -38 56q-3 13 -4 26t-1 26v63q0 2 -2 2l-2 -1q0 -2 -2 -4q-14 -31 -30 -59.5t-37 -54.5q-15 -20 -33 -36.5t-40 -28.5q-38 -19 -77 -19
q-23 0 -44.5 6.5t-41.5 17.5q-47 28 -70 79q-11 26 -18 52t-11 53q-5 29 -5 57.5t1 57.5z" />
    <glyph glyph-name="V" unicode="V" horiz-adv-x="525" 
d="M34 678q0 11 4 20t10 18q17 24 47 25q43 3 66 -35q5 -8 8.5 -17t7.5 -18q27 -69 42 -145q5 -23 9.5 -45.5t8.5 -45.5q8 -45 18.5 -87.5t21.5 -86.5q0 -3 3 -3q4 2 4 4q5 15 10 29.5t10 30.5q18 61 36 121.5t41 120.5q10 27 21 53l22 52q5 14 15 26q8 9 19.5 11.5
t22.5 -2.5t16.5 -16t3.5 -23q-2 -11 -5.5 -22.5t-6.5 -22.5q-20 -71 -39 -141t-36 -142q-14 -56 -30 -111t-36 -110q-5 -12 -9.5 -24t-11.5 -23q-6 -10 -13 -18t-17 -14q-16 -11 -33 -15t-37 1q-32 8 -51 28.5t-31 49.5q-5 13 -9 25.5t-8 26.5q-12 48 -24.5 94.5t-23.5 94.5
q-8 36 -15 72t-14 73q-9 46 -12 95q-1 16 -3 31.5t-4 30.5q1 1 2 1v33z" />
    <glyph glyph-name="W" unicode="W" horiz-adv-x="833" 
d="M19 573q-2 41 29 68q14 13 32 18t35.5 2.5t33 -12.5t25.5 -26t15 -35q2 -11 3.5 -23t3.5 -23q2 -19 5 -38t5 -38q2 -14 3 -28.5t2 -28.5q2 -45 9.5 -87.5t14.5 -86.5q1 -2 1.5 -4t1.5 -4q1 0 2 -1q4 0 5 1q11 25 22 49t22 49q9 20 17.5 41.5t18.5 41.5q8 16 17 31t18 31
q6 11 17 15.5t22 3t20.5 -8.5t13.5 -18q11 -29 21 -62q11 -39 24.5 -77t30.5 -75q1 -2 3 -4q2 2 3 4q8 42 20.5 82t26.5 81q11 36 25.5 70.5t30.5 68.5q11 23 21.5 46.5t21.5 46.5q10 23 27 37q22 21 50.5 22.5t51.5 -16.5q25 -20 28 -49q3 -31 -8 -56q-10 -22 -19 -43
t-18 -43q-14 -35 -25 -71t-24 -72q-8 -23 -15 -46.5t-15 -47.5q-5 -17 -10.5 -33.5t-13.5 -33.5q-8 -18 -14.5 -36.5t-14.5 -37.5q-6 -16 -14.5 -31t-18.5 -29q-12 -15 -24 -26q-10 -9 -24 -13.5t-28.5 -2.5t-27 11.5t-19.5 27.5q-12 30 -24 59.5t-21 61.5q-5 18 -11.5 35
t-12.5 35q-8 26 -16.5 52t-16.5 52q-1 2 -1.5 2.5t-1.5 2.5q-4 -2 -4 -4q-5 -7 -8 -14q-8 -21 -16.5 -42t-17.5 -42q-4 -9 -7.5 -18t-7.5 -17q-14 -33 -26.5 -66.5t-20.5 -68.5q-2 -7 -4 -13t-4 -13q-16 -45 -64 -48q-34 -2 -61 16t-38 47q-8 20 -14 41t-11 43
q-8 38 -14.5 76.5t-13.5 76.5q-2 17 -3.5 34.5t-3.5 34.5q-2 20 -4.5 39.5t-4.5 39.5l-6 57q-2 8 -3 15t-2 15t-1 15t-1 15z" />
    <glyph glyph-name="X" unicode="X" horiz-adv-x="503" 
d="M388 -25q-46 0 -71 40q-7 11 -12.5 23t-10.5 24q-11 27 -22 54.5t-22 54.5q-1 2 -1.5 4t-1.5 4l-27 54q-13 -9 -20 -23t-15 -28q-16 -26 -30.5 -52t-29.5 -52q-5 -9 -9.5 -17t-12.5 -14q-9 -8 -18 -12q-10 -5 -20 -4t-18 6.5t-13 13.5t-5 17t0.5 18t5.5 17
q7 13 13.5 25.5t14.5 24.5q20 32 39.5 63.5t41.5 60.5q1 2 1.5 2.5t1.5 2.5q8 11 16.5 20.5t13.5 21.5q-5 12 -11 23.5t-11 23.5q-11 22 -22.5 44t-22.5 44q-17 34 -27.5 69t-18.5 71q-2 8 -2 16.5v16.5q2 26 18.5 43.5t42.5 19.5q8 1 15.5 -1.5t15.5 -5.5q23 -11 40 -34
q18 -23 33.5 -48t28.5 -52q8 -17 16.5 -34.5t17.5 -34.5q5 -11 8 -11.5t11 10.5q8 9 15.5 19t15.5 20q5 7 10 13t10 13q10 13 25 16q11 2 20 -1t16 -13q13 -20 2 -42q-3 -6 -7.5 -11t-9.5 -10q-17 -18 -32 -38l-30 -40q-6 -8 -6 -15t4 -15q11 -22 21.5 -44t21.5 -45
q19 -41 35.5 -81.5t33.5 -82.5q5 -12 8.5 -23.5t8.5 -23.5q6 -16 2.5 -34.5t-14.5 -34t-28 -26t-38 -10.5h-5v0z" />
    <glyph glyph-name="Y" unicode="Y" horiz-adv-x="643" 
d="M419 383q2 18 4 36.5t4 38.5q0 4 1 8t1 8q1 2 0.5 3t-0.5 2q-3 -1 -7 -3l-6 -9q-21 -32 -42.5 -64.5t-41.5 -64.5q-20 -31 -44.5 -57t-53.5 -46t-60.5 -24t-64.5 13q-19 11 -34 31q-14 18 -21.5 37.5t-12.5 40.5q-5 28 -8.5 55.5t-2.5 56.5v56t4 56q3 20 4 38.5t3 38.5
q2 17 11 32.5t22.5 26t31.5 14.5t39 -1q28 -6 46 -27.5t20 -51.5q1 -12 1 -24.5t-4 -24.5q-1 -2 -1 -5q-2 -33 -5 -66t0 -66q1 -18 2.5 -36.5t6.5 -36.5q1 -3 1.5 -5.5t1.5 -5.5q5 -11 10 -12.5t15 5.5q11 7 17.5 16t13.5 19q15 23 29.5 45t29.5 44q14 21 29 41.5t30 41.5
q8 11 15.5 21t14.5 21q12 17 23 33t22 33q29 41 80 32q33 -6 49 -36q13 -24 15 -52q4 -43 -2 -90q-1 -5 -1.5 -9.5t-0.5 -9.5q-2 -23 -3.5 -45.5t-3.5 -45.5l-6 -50t-5 -51q-5 -39 -12 -78t-21 -77q-8 -23 -20 -45t-26 -42q-13 -18 -34 -32q-47 -33 -101 -40
q-20 -2 -38.5 2.5t-34.5 14.5q-60 38 -81 108q-7 28 20 41q11 4 24 0q7 -3 12.5 -8t10.5 -10q7 -7 14 -13t15 -13q3 -3 10 0q13 7 22 21q11 19 26 38q11 14 16.5 30t10.5 33q9 33 12 67q2 20 4.5 39t4.5 39z" />
    <glyph glyph-name="Z" unicode="Z" horiz-adv-x="574" 
d="M188 4q-20 -1 -39 1l-38 4q-7 1 -13.5 3t-13.5 4q-5 2 -10 4.5t-8 6.5q-10 13 -19.5 25.5t-15.5 26.5q-9 21 -6 40.5t14 38.5q6 10 13 19t14 19q8 11 16 22.5t16 22.5q31 48 61.5 95.5t62.5 95.5q27 43 56 85t61 81q6 7 11 16q7 7 -4 9q-5 1 -8.5 1.5t-8.5 0.5
q-26 1 -50.5 5t-49.5 8q-12 2 -24 4.5t-25 4.5q-5 1 -15 5q-21 9 -21 32q-1 24 19 34q15 8 35 5q23 -3 46 -7t46 -6q25 -3 49.5 -4.5t48.5 -3.5q8 0 14.5 -0.5t13.5 0.5q18 2 35.5 -1.5t34.5 -8.5q21 -6 35 -20t20.5 -31.5t4.5 -37t-13 -37.5q-3 -5 -6 -9t-7 -9
q-50 -57 -92.5 -118t-82.5 -125q-16 -25 -32 -49.5t-33 -48.5l-72 -111q-2 -2 -0.5 -3.5t3.5 -1.5q17 0 32.5 -0.5t31.5 -0.5q21 0 42.5 0.5t42.5 0.5q11 -1 23 -2t23 -4q17 -3 24.5 -13.5t9.5 -24.5t-9.5 -27.5t-25.5 -15.5q-5 -1 -9.5 -1h-9.5h-113v1h-85z" />
    <glyph glyph-name="a" unicode="a" horiz-adv-x="484" 
d="M446 321q-2 -17 -2.5 -33.5t-1.5 -33.5q-2 -11 -2 -22t-1 -22q-1 -14 -1.5 -28t-4.5 -28q-6 -46 -52 -57q-20 -6 -40.5 2t-32.5 23q-12 20 -16 36q-2 8 -10 4q-7 -10 -20 -24q-20 -18 -44.5 -28t-53.5 -10q-21 0 -40 7.5t-35 20.5q-22 17 -36.5 38.5t-19.5 49.5
q-2 11 -2.5 22t0.5 24q4 36 13.5 70t28.5 65q17 29 40.5 53t55.5 40q15 8 34.5 12t40.5 3t41 -6t35 -15q1 -2 2.5 -3t3.5 -3q6 -2 10 1q3 2 5 5t5 5q17 14 40.5 10.5t36.5 -23.5q8 -11 10 -31q3 -12 4 -24t3 -24q4 -18 4.5 -37t1.5 -39zM201 240q0 -5 -0.5 -7.5t0.5 -4.5
q0 -6 4 -6t6 2q5 5 8 9t6 7q21 29 37 59t33 59q0 1 0.5 1t0.5 1q0 3 -1 6q-1 1 -5 1q-11 -8 -22 -15.5t-22 -13.5q-8 -5 -15 -12.5t-12 -17.5q-10 -17 -13 -35t-5 -33z" />
    <glyph glyph-name="b" unicode="b" horiz-adv-x="468" 
d="M441 253q-1 -11 -1 -21.5t-2 -21.5q-5 -29 -21.5 -50.5t-36.5 -38.5q-23 -19 -48.5 -30t-54.5 -18q-8 -2 -15.5 -3t-14.5 -2q-8 -1 -15 0t-15 -2q-1 -8 -2.5 -15t-3.5 -15q-4 -17 -13 -31.5t-26 -24.5q-45 -26 -87 4q-33 24 -39 63q-2 15 -3 30.5t-1 31.5
q-2 61 -3.5 121.5t-3.5 121.5q-4 29 -4 58t-5 59q-1 5 -0.5 10.5t-0.5 10.5q-1 12 -1.5 24t-2.5 23q-2 20 -2.5 41.5t6.5 42.5q6 20 17 36t29 28q22 14 50 9.5t46 -27.5q11 -14 15 -29t6 -31q3 -25 4 -49t3 -49q1 -16 2.5 -33t3.5 -33q0 -2 3 -4t5 -1q9 4 18 7q32 14 71 16
q56 0 90 -47q5 -6 9.5 -13t7.5 -14q8 -18 15 -34.5t13 -33.5q6 -16 7 -32.5t1 -33.5zM210 267q0 -14 0.5 -20t3 -7.5t9 -0.5t18.5 3q11 1 19.5 5.5t16.5 11.5q5 6 9 10.5t9 9.5q16 21 22 47q1 5 1 12.5t-2.5 14.5t-7 11t-11.5 3q-22 -7 -42 -18t-36 -29q-7 -7 -10 -14t0 -18
q2 -3 1.5 -10t-0.5 -11z" />
    <glyph glyph-name="c" unicode="c" horiz-adv-x="405" 
d="M222 556q50 0 95 -30q18 -11 31.5 -27t21.5 -36q9 -24 -1 -47q-7 -16 -20 -21t-28 1q-6 4 -13 8t-14 7q-18 14 -38 0q-18 -11 -31 -25.5t-19 -35.5q-5 -20 -6.5 -40t-0.5 -40v-4q5 -18 13 -35.5t17 -33.5q2 -5 9.5 -5.5t12.5 4.5q10 9 21 21q8 10 16 18t18 17
q12 12 27 13t26 -9.5t11 -25.5q-1 -8 -2 -15t-4 -15q-7 -14 -16 -27.5t-20 -25.5q-11 -18 -25 -30q-14 -14 -31.5 -21.5t-36.5 -10.5q-34 -6 -64 -0.5t-54.5 19.5t-43 36t-29.5 49q-12 32 -16.5 63.5t0.5 65.5q4 23 7.5 46t11.5 46q14 47 45 83q48 64 130 63z" />
    <glyph glyph-name="d" unicode="d" horiz-adv-x="504" 
d="M33 307q-2 31 9 57.5t28 49.5q26 37 63 63q28 19 57.5 29.5t61.5 15.5q10 2 19 2t18 -2q10 -3 13 10q5 24 12.5 47.5t15.5 46.5q5 14 11.5 27t14.5 26q12 15 27 23q13 8 27 8.5t26 -4.5t21 -15t14 -23q8 -28 5 -62q-4 -26 -7 -52t-4 -52q0 -18 -2.5 -34t-4.5 -32
q-2 -17 -4 -32.5t-4 -31.5q-2 -17 -5 -32.5t-5 -29.5q-1 -4 -1 -11q-2 -34 -4.5 -66.5t-1.5 -64.5v-12.5t-1 -12.5q-3 -20 -12 -36.5t-24 -32.5q-20 -19 -47.5 -19t-48.5 18q-11 10 -20 21.5t-14 25.5q-2 5 -4 5t-7 -2q-2 -2 -3 -2q-25 -16 -49.5 -16t-50.5 11
q-37 15 -61 48q-20 23 -34 48.5t-20 54.5q-2 11 -2 20t-2 20zM186 254q1 -5 0.5 -10t1.5 -8q8 -20 15 -21.5t21 11.5q2 4 4.5 6t4.5 5q8 11 14.5 20.5t14.5 19.5q6 10 6 23q1 9 1.5 18t2.5 17q2 13 -0.5 15t-13.5 -2q-22 -6 -36 -19t-23 -33q-1 -5 -3 -9t-3 -9
q-5 -14 -7 -24z" />
    <glyph glyph-name="e" unicode="e" horiz-adv-x="348" 
d="M29 327q-3 55 13 98.5t51 80.5q19 20 40.5 35t47.5 20q56 14 101 -19q17 -14 27 -31.5t16 -36.5q6 -23 1 -46q-2 -17 -5 -33t-8 -32q-21 -54 -76 -70q-25 -3 -47 1q-13 4 -15.5 1.5t-2.5 -18.5q-2 -13 -1 -25.5t6 -25.5q2 -5 4 -8t6 -8q1 -4 3 -4t4 2q11 11 20 23
q5 6 10.5 12.5t12.5 9.5q14 8 30 1t18 -24q5 -13 -1 -25q-11 -42 -42 -71q-13 -11 -29 -17t-32.5 -6.5t-32.5 4t-29 14.5q-26 19 -44 43.5t-29 52.5q-10 26 -14 52.5t-3 49.5zM248 417q-1 9 -12 17q-11 3 -20 -6q-12 -11 -18 -25t-10 -29q0 -6 5 -8q15 -5 30 -3q17 5 21 19
q1 5 2 10.5t2 7.5v17z" />
    <glyph glyph-name="f" unicode="f" horiz-adv-x="466" 
d="M311 762q17 1 33 -3t32 -10q25 -10 42.5 -26.5t25.5 -42.5q14 -44 -3 -82q-13 -25 -36 -32t-49 4q-10 4 -18.5 8.5t-19.5 9.5q-16 7 -24 -8q-10 -17 -16 -36q-5 -19 -9.5 -38t-8.5 -38q-1 -14 -3 -26t-2 -26q3 -10 11 -10h62q20 0 32 -6q13 -8 20.5 -19t6.5 -26
q0 -29 -30 -42q-19 -8 -42 -3q-11 1 -22.5 1.5t-24.5 0.5q-7 2 -7 -6q3 -14 4.5 -27t4.5 -27q6 -36 13.5 -72t15.5 -72q4 -17 3 -35.5t-11 -36.5q-10 -17 -26.5 -27t-34.5 -12.5t-35.5 2t-30.5 16.5q-25 22 -33 55q-8 41 -16 80.5t-15 80.5q-3 14 -4.5 28t-4.5 28
q0 11 -9 11t-16.5 1t-15.5 6q-3 2 -7 4.5t-7 6.5q-11 17 -7 32.5t21 25.5q6 3 12.5 5t12.5 4q8 4 8 10q1 17 2 33t3 32q6 51 17 100.5t35 96.5q16 29 39 55q23 25 60 39t72 13z" />
    <glyph glyph-name="g" unicode="g" horiz-adv-x="484" 
d="M275 236q0 2 -1 4.5t-2 4.5q-3 4 -5.5 2t-4.5 -3q-3 -1 -4 -4q-25 -16 -51 -19.5t-53 1.5q-82 15 -116 94q-11 20 -11 44q-2 27 1.5 54.5t14.5 53.5q14 36 38 65.5t58 49.5q26 18 54.5 23t58.5 0q10 -1 19 -3.5t18 -4.5q11 -4 14 -2.5t9 15.5q10 31 40 49q23 11 41.5 6
t32.5 -17q23 -20 26 -52q2 -20 3.5 -39.5t0.5 -38.5q-2 -45 -2 -89t-2 -89q-2 -28 -2.5 -55.5t-2.5 -55.5q-3 -32 -5 -62.5t-10 -61.5q-8 -25 -16 -48.5t-22 -44.5q-29 -46 -83 -63q-27 -9 -55.5 -8.5t-54.5 11.5q-31 14 -53 36t-32 56q-2 8 -2 16q-1 14 -1 28v28
q0 22 22 32q23 8 41 -9q5 -5 9 -12t6 -14q4 -14 10 -31q10 -19 28 -8q2 3 4.5 5t4.5 5q10 16 18 33.5t10 36.5q3 14 5 28t4 25v28zM285 457q1 7 -5 11q-42 22 -76.5 9t-48.5 -64q-5 -14 -7 -29t-1 -30t9 -25t21 -16q14 -6 26.5 -3t25.5 11q12 8 21.5 19t19.5 20q11 11 13 29
q1 34 1 46.5t1 21.5z" />
    <glyph glyph-name="h" unicode="h" horiz-adv-x="489" 
d="M218 226q1 -20 2.5 -37t1.5 -34q1 -24 -6 -44.5t-26 -37.5q-23 -20 -52.5 -20.5t-52.5 20.5q-25 22 -31 56q-2 10 -3 20t-1 20v34.5t-2 34.5q-4 29 -3.5 59t-5.5 59v10q-2 28 -3.5 56t-3.5 57q-1 23 -3.5 46t-4.5 47q-2 5 0 14q1 17 1 33.5t2 32.5q3 11 6 21t8 18
q9 13 22.5 21.5t28.5 10t30.5 -4.5t28.5 -21q16 -18 23 -37q19 -54 24 -111q1 -30 4 -60l6 -60q0 -7 7 -3q9 6 18 11.5t19 10.5q39 17 75 12t68 -31q14 -11 25.5 -25t20.5 -29q29 -45 21 -102q-2 -15 -3 -30.5t-5 -31.5q-5 -20 -8.5 -39.5t-8.5 -38.5q-6 -26 -24 -44
q-36 -33 -83 -20q-23 6 -37.5 21.5t-20.5 38.5q-2 10 -2.5 19.5t1.5 20.5q5 23 9.5 44.5t8.5 43.5q1 16 0 33q-2 11 -3.5 20.5t-7.5 17.5q-1 7 -6 10q-2 2 -10 2q-2 -1 -4.5 -2.5t-4.5 -3.5q-11 -10 -18 -21t-13 -23q-2 -4 -3 -9t-1 -9v-46v0z" />
    <glyph glyph-name="i" unicode="i" horiz-adv-x="236" 
d="M203 278q-2 -20 -2.5 -41.5t-2.5 -42.5q-9 -59 -63 -74q-23 -7 -45 -1.5t-41 28.5q-21 23 -20 53v46.5t2 45.5q2 14 2.5 27.5t0.5 28.5q0 32 11 59.5t30 52.5q22 26 52 23.5t46 -27.5q14 -21 23 -44.5t9 -49.5q-1 -11 -1 -22.5v-23.5h-1v-38zM124 647q13 0 23.5 -5
t18 -13.5t11 -19t2.5 -19.5q-5 -56 -58 -58q-25 0 -41 18.5t-15 43.5q2 20 17 38t42 15z" />
    <glyph glyph-name="j" unicode="j" horiz-adv-x="427" 
d="M224 310q-1 18 -1 36t-1 36q0 19 0.5 37t5.5 38q5 16 13.5 29t24.5 22q20 11 42 8t39 -19q6 -6 12 -13t9 -14q10 -22 17 -44.5t7 -45.5q1 -30 3.5 -60.5t0.5 -61.5q-2 -41 -4.5 -81.5t-10.5 -80.5q-12 -62 -47 -105.5t-89 -72.5q-27 -14 -57 -16t-60 8q-23 6 -40 20.5
t-31 34.5q-18 21 -26 45.5t-10 50.5q-2 33 0 68q0 5 1 10t3 11q5 18 10.5 36t11.5 36q11 26 31 43q8 6 17 8t20 -3q18 -8 21 -27q0 -7 -1 -13.5t-2 -12.5q-4 -17 -8 -33.5t-9 -33.5q-2 -10 -2.5 -20t0.5 -21q1 -24 30 -34q22 -5 38 4.5t24 28.5q4 10 6.5 19.5t3.5 20.5
q2 20 5 38.5t2 38.5v85h1zM302 715q44 -3 60 -42q11 -23 4.5 -45t-26.5 -37q-12 -10 -26 -16t-29 -3.5t-27.5 11.5t-21 22.5t-8.5 28.5q0 20 6.5 36t22.5 30q7 7 20.5 11.5t24.5 3.5z" />
    <glyph glyph-name="k" unicode="k" horiz-adv-x="423" 
d="M30 308q-1 59 -1 102.5t-1 84.5q-2 54 10 105q2 11 3.5 21.5t3.5 21.5q11 35 46 47q15 5 29 1.5t26 -12.5q6 -5 10.5 -11.5t7.5 -12.5q7 -11 11 -23t6 -26q8 -35 16 -73q1 -5 1 -9v-9v-45t1 -44q0 -15 1.5 -29.5t2.5 -28.5q0 -2 2 -3t4 1q14 9 27 18t27 19q10 6 19.5 13
t18.5 13q8 5 15.5 9t15.5 7q19 8 34 2t24 -16q9 -11 10 -27t-8 -31q-6 -8 -11.5 -14.5t-11.5 -12.5q-15 -15 -31.5 -28t-35.5 -24q-8 -5 -17.5 -9t-14.5 -13q8 -6 15 -12t15 -11l38 -28t37 -32q8 -9 16 -24q10 -26 -7 -44q-9 -10 -20 -11t-22 4q-6 2 -11.5 4.5t-12.5 5.5
q-6 5 -12.5 10.5t-14.5 12.5q-20 15 -40 29.5t-40 29.5q-4 2 -7.5 1.5t-3.5 -5.5q-1 -6 -1 -12v-13q-1 -14 -0.5 -28t-0.5 -28q-2 -18 -7.5 -34t-18.5 -27q-38 -37 -88 -21q-50 19 -56 74v22q1 49 1 95t1 78z" />
    <glyph glyph-name="l" unicode="l" horiz-adv-x="230" 
d="M200 149q0 -11 -1 -20.5t-4 -17.5q-19 -55 -76 -58q-28 -2 -49.5 11.5t-32.5 39.5q-7 15 -7 32v16q0 75 0.5 150t0.5 150q0 29 2.5 56.5t7.5 56.5q2 21 5 41l6 40q2 7 3.5 14t3.5 13q16 43 58 47q31 4 55 -24q15 -18 16 -39l4 -28t3 -29q7 -63 6 -126t-1 -126v-199z" />
    <glyph glyph-name="m" unicode="m" horiz-adv-x="806" 
d="M36 190q1 51 3 102.5t4 103.5q1 16 2 31t3 30q2 14 4.5 28t5.5 27q7 25 24 41q15 15 41.5 17.5t44.5 -13.5q28 -25 37 -61q5 -13 7 -25.5t4 -25.5q2 -4 9 -2q28 20 63 19q21 -2 42 -12q25 -15 44 -35t34 -43q3 -4 5 -8.5t5 -8.5q3 -3 6 1q7 13 13 25t14 26q17 29 41 49.5
t56 34.5q16 6 31.5 8.5t31.5 -1.5q66 -12 114 -56q20 -18 30 -41t14 -49q3 -26 3.5 -50.5t0.5 -50.5q0 -21 -3 -41l-6 -40q-2 -14 -3.5 -28t-3.5 -28q-3 -21 -11.5 -39t-26.5 -32q-19 -15 -40.5 -17t-40.5 5.5t-33 23.5t-18 37q-3 17 -1.5 32.5t3.5 31.5l6 40t5 40
q1 10 2 18.5t1 18.5q-3 61 -14 89.5t-27.5 27.5t-35.5 -29t-38 -80q-8 -27 -10 -53.5t-5 -53.5q-2 -14 -3 -28.5t-4 -28.5q-2 -17 -14 -31q-5 -5 -11 -13q-12 -17 -28.5 -24.5t-33.5 -7.5t-33.5 7t-29.5 21q-9 10 -14 20.5t-7 21.5q-4 8 -5 17.5t-2 19.5q-5 43 -6.5 87
t-5.5 84q-3 26 -13.5 41t-22 13.5t-20.5 -22t-9 -66.5q-2 -45 -3 -87.5t-3 -86.5q0 -21 -8.5 -38t-24.5 -32q-21 -17 -50 -17.5t-51 16.5q-35 29 -35 68q-1 20 -0.5 40.5t0.5 41.5z" />
    <glyph glyph-name="n" unicode="n" horiz-adv-x="539" 
d="M507 290q1 -26 -2.5 -50.5t-5.5 -49.5q-3 -16 -4 -31.5t-4 -30.5q-12 -56 -62 -73q-40 -12 -72 13q-35 28 -34 70q0 26 5 54q10 45 19 87.5t17 87.5q3 13 5.5 27t2.5 28q-1 11 -7 19.5t-20 9.5q-31 1 -57 -14q-15 -11 -29 -23t-24 -28q-6 -9 -11 -18.5t-11 -18.5
q-13 -21 -11 -50q2 -35 3 -69.5t3 -69.5v-24.5t-4 -22.5q-10 -26 -29 -39.5t-43 -15.5q-52 -6 -81 42q-6 11 -8.5 21.5t-4.5 21.5q-3 31 -3.5 61t-2.5 60q0 16 -1.5 31t-2.5 31v2q-2 32 -3.5 63t-2.5 63q-1 5 -1 8v8q2 29 19.5 52t45.5 30q33 7 60.5 -9.5t38.5 -45.5
q7 -17 7 -40q0 -1 2 -3q3 0 4 1q13 13 27 24t29 19q9 6 18.5 11.5t20.5 10.5q42 19 82.5 9t69.5 -44q19 -20 29 -45q9 -23 17.5 -44.5t12.5 -46.5q0 -4 1.5 -7.5t1.5 -7.5q1 -11 0.5 -22t-0.5 -22z" />
    <glyph glyph-name="o" unicode="o" horiz-adv-x="468" 
d="M427 329q0 -26 -1.5 -49t-9.5 -44q-3 -8 -6 -16.5t-7 -16.5q-9 -20 -21.5 -38.5t-23.5 -36.5q-8 -11 -17.5 -20t-21.5 -15q-25 -15 -52.5 -23.5t-57.5 -9.5q-60 -1 -109 35q-10 8 -19 17t-18 19q-14 16 -21 35.5t-10 40.5q-6 64 9 123t48 116q11 18 24 34t32 27
q2 2 4.5 3t4.5 3q19 7 36.5 14t37.5 11q15 5 30 4t30 -5q11 -2 20.5 -5.5t20.5 -8.5q20 -7 35.5 -21.5t26.5 -33.5q8 -17 15.5 -35.5t13.5 -37.5q5 -17 6 -34t1 -32zM350 313q0 8 0.5 16t-1.5 15q-8 28 -20 48t-27.5 25t-33 -7t-35.5 -49q-15 -30 -23.5 -64t-8.5 -55
q0 -14 3 -27.5t5 -27.5q3 -12 13 -21t23 -13.5t26.5 -1.5t24.5 15q5 6 9.5 11.5t8.5 12.5q4 8 8.5 17.5t8.5 19.5q19 43 19 86z" />
    <glyph glyph-name="p" unicode="p" horiz-adv-x="570" 
d="M311 116q-17 -1 -36 1.5t-38 9.5q-8 2 -10.5 0t-2.5 -11q2 -11 2.5 -21t1.5 -20q0 -24 1.5 -49t-0.5 -48q-2 -29 -21 -51t-52 -28q-30 -5 -55 12t-35 44q-2 8 -3.5 15.5t-3.5 15.5q-1 36 -2 71.5t-3 71.5q-2 25 -3 50t-3 51q-2 24 -4 49l-4 50q-2 17 -1.5 34t-0.5 34
q-1 18 -1.5 35.5t-2.5 35.5q-1 12 1 23l4 22q8 24 23 41.5t42 22.5q23 5 41 -2t32 -22q4 -5 7 -8t5 -7q4 -5 9 -1q4 2 7 4l6 4q25 16 54 24t59.5 7t60 -10.5t54.5 -29.5q30 -24 50 -55.5t28 -69.5q5 -14 7 -28t5 -28q2 -12 0 -26q-6 -67 -41 -126q-20 -31 -49.5 -50.5
t-64.5 -30.5q-15 -5 -30.5 -6t-32.5 0zM384 348q1 14 -3 25.5t-9 22.5q-19 45 -72 48q-19 1 -35 -4.5t-31 -15.5q-10 -6 -15 -10t-7.5 -9t-2.5 -11.5v-18.5q0 -2 -0.5 -4.5t0.5 -4.5q4 -13 3.5 -25t1.5 -25q0 -28 4 -51l3 -7.5t6 -4.5q15 -4 34 -11q8 -3 16 -5.5t16 -4.5
q29 -6 48 16q20 20 30.5 45.5t12.5 54.5z" />
    <glyph glyph-name="q" unicode="q" horiz-adv-x="493" 
d="M241 27q2 30 3 60.5t3 61.5q1 11 2.5 20.5t2.5 19.5q0 11 -10 5q-8 -6 -21 -11q-77 -32 -140 21q-32 27 -43.5 61.5t-5.5 75.5q3 17 6.5 33.5t11.5 32.5q43 98 146 116q7 1 13.5 1.5t14.5 1.5q41 4 81 -17q3 -1 5 -2t5 -3q5 -3 9 1q2 5 5 10.5t8 10.5q8 11 18.5 19
t25.5 9q24 3 43.5 -8.5t27.5 -37.5q8 -21 8 -40q-1 -17 -0.5 -33t-0.5 -33q0 -12 -2 -25t-5 -25q-5 -32 -12 -62t-12 -62q-2 -11 -3.5 -22.5t-2.5 -22.5q-1 -27 -4 -55t-4 -55q0 -21 -1.5 -43.5t-3.5 -45.5q0 -15 -7 -26q-7 -24 -28.5 -40.5t-46.5 -18.5q-15 0 -29.5 5.5
t-26.5 15.5t-20 23.5t-9 28.5q-2 14 -1.5 27t0.5 28zM159 304q1 -3 1 -8q2 -15 13 -21t24 1q7 2 13 10q6 5 11 10.5t9 10.5q14 20 25.5 38.5t23.5 37.5q2 2 3 4.5t3 4.5q1 2 -0.5 5.5t-3.5 3.5q-8 1 -14 3t-13 0q-17 -2 -32 -8.5t-28 -15.5q-17 -13 -25 -31q-9 -21 -10 -45z
" />
    <glyph glyph-name="r" unicode="r" horiz-adv-x="511" 
d="M30 429q2 12 3 25t4 25q9 46 54 58q17 4 31.5 -2t27.5 -16q9 -8 16 -17.5t12 -20.5q3 -5 6 -12t6 -12q1 -2 3 -3t4 1q3 2 5 3.5t4 3.5q11 9 21.5 17.5t21.5 16.5q17 13 36.5 20t41.5 9q11 2 22.5 0t22.5 -6q43 -14 64 -48q18 -25 29.5 -51.5t16.5 -56.5q5 -26 -1.5 -50.5
t-27.5 -44.5q-16 -16 -36.5 -21.5t-42.5 2.5q-24 6 -38 21t-22 38q-5 18 -2.5 34t7.5 31q4 5 6.5 11t4.5 11q1 2 -1.5 5t-4.5 2q-3 0 -5.5 -0.5t-5.5 -1.5q-16 -8 -31.5 -17t-29.5 -20q-9 -7 -16 -22q-9 -21 -13 -42.5t1 -44.5q2 -17 4 -34.5t4 -34.5q2 -12 4 -23.5t6 -23.5
q6 -38 -14 -69q-13 -20 -32 -29t-40 -8q-48 2 -74 47q-5 10 -7 21l-4 22q-5 22 -8 44.5t-5 43.5q-5 35 -9 70t-9 70q-2 20 -5.5 39.5t-4.5 39.5z" />
    <glyph glyph-name="s" unicode="s" horiz-adv-x="446" 
d="M218 -69q-30 0 -59 7q-40 11 -67.5 36t-45.5 62q-11 26 -19 58q-8 37 27 47q19 6 33 -8q5 -5 9.5 -10t7.5 -12q12 -25 38 -37.5t50.5 -10.5t40.5 20.5t10 56.5q-4 23 -19 41t-35 34q-23 18 -46 38t-44 43q-35 38 -51 83q-22 66 13 124q8 13 18.5 22.5t21.5 20.5
q13 11 26 20t29 14q52 20 106 11q44 -6 76 -37q5 -6 9.5 -11t6.5 -12q5 -12 -1.5 -27.5t-26.5 -18.5q-7 -2 -16 3q-5 2 -10.5 4t-11.5 4q-20 7 -37 1.5t-27.5 -19t-11.5 -31t11 -34.5q9 -8 17.5 -17t17.5 -17q10 -9 20.5 -17.5t21.5 -17.5q39 -32 67 -70.5t40 -89.5
q7 -22 9 -48q5 -41 -8 -75.5t-36 -66.5q-23 -33 -66 -47q-22 -8 -43 -12.5t-45 -3.5z" />
    <glyph glyph-name="t" unicode="t" horiz-adv-x="437" 
d="M305 359q-10 0 -20 0.5t-20 -0.5q-6 0 -8 -6v-6q-1 -31 -1.5 -61.5t1.5 -61.5q1 -29 7.5 -58.5t20.5 -56.5q6 -10 14 -1q3 5 5.5 9.5t3.5 9.5q3 8 4 17.5t3 17.5q2 13 3 27t3 28q0 5 1.5 9t3.5 8q17 26 45 20q13 -2 19.5 -10.5t11.5 -20.5q0 -1 0.5 -2t0.5 -3
q2 -39 -0.5 -77t-21.5 -74q-10 -20 -22 -36.5t-31 -29.5q-30 -20 -63 -21q-17 0 -33 1t-31 6q-26 8 -45.5 24t-30.5 39q-10 20 -16.5 42t-11.5 44q-9 51 -12 102q-2 21 -0.5 42.5t1.5 44.5v30q0 8 -2 10t-10 3h-8t-8 2q-5 1 -10 2.5t-10 3.5q-8 5 -13.5 16t-3.5 19
q6 26 30 30q8 1 15 0.5t15 0.5q10 0 11 8q1 23 2.5 45t4.5 45q2 23 3.5 46.5t6.5 47.5q5 21 13.5 39.5t25.5 32.5q37 32 83 12q20 -9 31 -29q15 -23 15 -48q2 -34 -4 -63q-2 -15 -3 -31t-3 -31q-1 -16 -1 -31.5t-4 -32.5q-2 -3 1.5 -6.5t7.5 -3.5h22h29t29 -1q6 0 12.5 -2
t12.5 -4q10 -3 15 -9.5t10 -15.5q3 -10 0 -19q-8 -19 -26 -26q-6 -3 -13.5 -4t-15.5 -2q-10 -2 -20 -1t-21 1z" />
    <glyph glyph-name="u" unicode="u" horiz-adv-x="523" 
d="M202 267q0 -12 3.5 -23.5t7.5 -24.5q2 -2 4.5 -6t5.5 -7q11 -11 25 -3t25.5 17t21.5 23q29 37 50 81q8 15 15.5 29.5t14.5 32.5q3 14 14.5 22.5t27.5 8.5q31 1 45 -28q3 -5 4.5 -10t3.5 -10q2 -15 2.5 -31t1.5 -31q2 -14 3.5 -27.5t2.5 -27.5v-10.5t1 -10.5
q1 -11 2 -20.5t2 -20.5q0 -11 0.5 -21.5t0.5 -21.5q-2 -20 -16 -36t-34 -19q-12 -3 -23 0.5t-20 10.5q-22 18 -27 49v11q-1 5 0.5 9t-3.5 9q-3 -5 -6.5 -8t-6.5 -6q-14 -18 -29.5 -33t-33.5 -27q-31 -22 -72 -22q-71 -4 -132 43q-23 20 -33 44q-7 20 -11 39t-6 39v30t-2 30
q-1 36 7.5 70t19.5 68q2 7 5 13l7 14q3 6 9 14q14 16 30.5 21.5t32.5 2.5t29 -14t20 -28q2 -7 4 -13t2 -14q2 -28 2.5 -55.5t2.5 -55.5v-11v-55z" />
    <glyph glyph-name="v" unicode="v" horiz-adv-x="398" 
d="M26 485q0 16 3 31t8 30q7 20 23 32t34 15t36 -2.5t30 -18.5q6 -7 10.5 -14t9.5 -15q9 -19 13.5 -38.5t7.5 -39.5q5 -27 9.5 -54t9.5 -55q4 -40 15 -83q2 -11 4.5 -21t4.5 -20q0 -1 2 -1.5t3 -2.5q0 2 2 4q4 14 7.5 26.5t8.5 25.5q6 21 13 42.5t14 42.5q3 11 9 20
q9 13 22 16t26 -2q13 -6 19.5 -18.5t3.5 -25.5q-1 -5 -1.5 -9.5t-2.5 -9.5q-19 -51 -34 -102t-31 -102q-5 -19 -11.5 -37.5t-12.5 -37.5q-12 -32 -38.5 -42.5t-57.5 -1.5q-46 13 -68 57q-8 16 -14 32t-11 32q-14 45 -22.5 89t-16.5 89q-5 27 -10 53.5t-10 53.5
q-2 15 -3.5 30.5t-3.5 31.5z" />
    <glyph glyph-name="w" unicode="w" horiz-adv-x="768" 
d="M29 436q0 16 1 29.5t6 25.5q15 29 40 41.5t57 4.5q17 -5 29 -16.5t20 -25.5q8 -11 11 -22t5 -22l6 -44t6 -45q4 -28 9 -56t13 -55q2 -4 3 -7q5 5 5 7q6 11 11 21.5t11 21.5q14 33 32 63.5t36 60.5q4 7 6.5 13t7.5 11q4 5 7.5 10t6.5 9q8 6 15.5 9t15.5 -2q2 -2 5 -2.5
t5 -1.5q23 -6 28 -29q8 -21 12 -38q8 -26 15.5 -52t15.5 -52q0 -3 2 -7q2 -2 3 -2q2 0 2 2q20 57 44 111.5t49 108.5q16 34 44 51q19 10 39 10.5t37 -7.5t29 -24.5t15 -40.5q4 -26 -5 -52q-3 -6 -6 -12.5t-5 -14.5q-17 -37 -33.5 -74.5t-32.5 -75.5q-11 -24 -19.5 -48
t-19 -47.5t-23.5 -45t-31 -39.5q-18 -16 -37.5 -21t-36.5 -1.5t-30 14.5t-19 27q-3 9 -8 22.5t-10.5 28.5t-10 29.5t-5.5 24.5q-7 26 -11.5 51.5t-10.5 51.5q-3 19 -7 33q0 1 -0.5 1t-0.5 1q-1 0 -1 1q-2 0 -5 -4q-1 -1 -1 -2t-1 -2q-14 -29 -26.5 -58t-23.5 -60
q-10 -26 -22 -51t-25 -50q-3 -5 -6.5 -10.5t-6.5 -10.5q-15 -23 -38.5 -30t-49.5 1q-32 11 -53 32.5t-34 51.5q-8 21 -12 42.5t-9 41.5q-6 27 -10.5 53t-6.5 52q-3 17 -5.5 32t-4.5 30q-1 8 -1 16t-1 13z" />
    <glyph glyph-name="x" unicode="x" horiz-adv-x="425" 
d="M120 547q14 1 27 -4.5t24 -15.5q19 -17 31 -37q8 -11 15 -22t13 -22q2 -3 4 -5t5 -6q4 -5 8 -1q14 14 26 28t26 28q10 9 19.5 19t18.5 20q4 5 9 8.5t12 5.5q8 5 17 2.5t16 -10.5q15 -15 3 -35q-5 -6 -9.5 -12t-9.5 -10q-18 -20 -36 -38.5t-36 -38.5q-3 -2 -6 -5l-5 -5
q-7 -8 -10 -12t-3 -7t2 -7.5t6 -11.5q17 -29 33 -57l32 -56q10 -17 16 -35t8 -37q2 -23 -7 -42.5t-30 -32.5t-42.5 -11t-40.5 17q-14 9 -25 20t-20 25q-10 15 -18 30.5t-18 29.5q-1 3 -2.5 5t-3.5 5q-5 10 -7.5 10t-10.5 -10q-2 -2 -2.5 -3.5t-1.5 -3.5q-12 -16 -21 -33.5
t-18 -34.5q-3 -5 -6 -10.5t-6 -10.5q-7 -12 -17 -18q-20 -12 -38 3q-21 14 -11 42q2 7 6 13l8 12q14 23 28.5 44t28.5 43q5 5 8.5 10.5t7.5 10.5q9 13 3 26q-6 8 -12 16.5t-12 17.5q-10 15 -18.5 30t-18.5 30q-8 12 -13.5 25.5t-7.5 30.5q-3 20 2.5 37.5t17.5 30t28 19.5
t34 6z" />
    <glyph glyph-name="y" unicode="y" horiz-adv-x="448" 
d="M411 256q-1 -21 -3.5 -42t-9.5 -42q-11 -39 -34.5 -70t-58.5 -56q-28 -19 -63 -22q-29 -2 -56 2t-53 14q-25 9 -38.5 25.5t-18.5 41.5q-3 16 7.5 30t28.5 14q24 0 47 -9q12 -4 21.5 -1t19.5 11q6 6 12 13.5t10 17.5q2 4 3 8t3 9q6 17 8 25t-1 11t-12 2t-26 -2
q-23 -3 -44.5 -0.5t-44.5 7.5q-36 12 -58 42q-9 12 -13 25.5t-6 27.5q-5 36 -3 64t2 55q1 15 3.5 30t6.5 29q6 15 16 31q15 23 35.5 30.5t44.5 2.5q46 -7 63 -55q5 -16 5.5 -33t-2.5 -34q-4 -26 -3.5 -50t1.5 -50q0 -6 2 -10q2 -13 13 -14q5 -1 10 -1.5t11 -0.5
q3 -2 4.5 0.5t1.5 5.5q1 8 1 16v16q2 46 8.5 89t22.5 79q12 29 41 39q16 7 30.5 4t27.5 -14q14 -8 21.5 -21t10.5 -30q2 -13 4.5 -25.5t2.5 -26.5q0 -8 1 -16.5t2 -18.5q0 -48 -1 -90t-3 -83z" />
    <glyph glyph-name="z" unicode="z" horiz-adv-x="450" 
d="M176 543q32 -1 64.5 -2t64.5 -2q9 -1 17 -0.5t16 1.5q31 5 54 -11.5t26 -47.5q1 -18 -8 -37q-12 -27 -27 -52.5t-36 -49.5q-28 -32 -55 -64.5t-52 -68.5q-8 -14 -16 -26.5t-16 -26.5q-3 -4 -1 -6.5t5 -2.5h38q16 1 31.5 1.5t31.5 0.5q13 0 21 -4q26 -6 26 -30
q1 -12 -6 -21.5t-20 -13.5q-5 -1 -10.5 -3t-10.5 -2q-17 -2 -33.5 -3.5t-33.5 -3.5q-48 -5 -96 -6q-24 0 -50.5 5.5t-46.5 19t-29.5 35.5t1.5 55q2 6 4 11l4 10q29 48 58.5 94.5t64.5 89.5q17 20 34.5 40t34.5 40q1 2 1 4v4t-4 2h-25q-13 2 -25.5 2t-25.5 2q-9 1 -16.5 0.5
t-16.5 0.5q-15 0 -24 12q-11 15 -3.5 33t27.5 21q8 1 15 1h15h16t17 -1z" />
    <glyph glyph-name="zero" unicode="0" horiz-adv-x="461" 
d="M30 307q-1 41 9.5 89.5t29.5 95t45.5 87t56.5 67.5q20 15 39.5 26.5t43.5 18.5q24 6 44 0.5t37 -19.5q6 -5 11.5 -9.5t13.5 -7.5q14 -5 24.5 -15t18.5 -22q2 -5 4.5 -10.5t5.5 -12.5q12 -33 18 -77.5t6 -93t-6 -99t-18 -96.5t-30 -84.5t-42 -63.5q-51 -55 -124 -45
q-30 4 -56 17.5t-49 33.5q-2 4 -6 7t-8 7q-23 19 -36 43.5t-20 53.5q-7 26 -9.5 52.5t-2.5 56.5zM351 495q-11 25 -31.5 31t-40.5 -10q-16 -12 -29.5 -38.5t-24 -57t-17 -60t-8.5 -47.5q-8 -70 5.5 -118.5t36.5 -64.5t48.5 6.5t40.5 95.5q4 24 11 60.5t12 75t5.5 73
t-8.5 54.5z" />
    <glyph glyph-name="one" unicode="1" horiz-adv-x="313" 
d="M80 141q1 10 1.5 19.5t1.5 18.5q1 5 1 13q2 26 5 50.5t7 49.5q0 12 1 16q1 54 14 109q3 15 5.5 29.5t6.5 29.5l-1 1q-1 0 -1 1h-1q-1 0 -1 -0.5t-1 -0.5q-3 -4 -7.5 -8.5t-9.5 -7.5q-6 -5 -13 -9.5t-13 -8.5q-22 -11 -39 4q-8 8 -10 19t3 22q2 4 4.5 7.5t6.5 8.5
q2 4 5.5 6.5t7.5 7.5q18 18 36 40t37 43t38 37.5t40 23.5q24 8 42 -2.5t26 -27.5q5 -8 7 -17.5t3 -19.5q2 -17 3 -35t1 -35q0 -16 -1 -31t-3 -32q-2 -24 -4 -47t-5 -47q-1 -5 -1 -12q-2 -22 -3.5 -43t-3.5 -43q-1 -16 -3.5 -32.5t-4.5 -32.5q-1 -5 -1 -9.5v-9.5
q-2 -17 -3 -34t-3 -34q-4 -25 -18 -43.5t-39 -26.5q-29 -10 -56 -1t-43 36q-9 14 -11.5 26t-2.5 32z" />
    <glyph glyph-name="two" unicode="2" horiz-adv-x="466" 
d="M238 121q10 1 19.5 2t19.5 1q20 2 41 3t42 -6q9 -2 14 -5q22 -12 20.5 -32t-19.5 -31q-13 -8 -27 -7h-7t-7 -1q-20 -2 -39 1t-40 1q-19 -3 -38 -2t-37 1h-19.5t-18.5 -5q-5 -2 -9 -1.5t-7 -0.5q-18 -4 -37 3.5t-33.5 22.5t-21.5 36.5t-1 45.5q5 17 11.5 34t14.5 35
q15 32 34.5 63.5t39.5 61.5q16 23 32.5 44.5t32.5 42.5q18 23 35 46l34 46q8 9 11.5 21t7.5 23q2 7 -1 12.5t-8 7.5q-8 2 -14 4t-13 3q-10 0 -17 -3q-15 -6 -30 -17q-9 -10 -18 -13q-11 -7 -21.5 -6.5t-17.5 7.5q-10 9 -11.5 19.5t1.5 20.5q3 5 5.5 9.5t6.5 9.5t7.5 8t7.5 7
q26 18 54 28.5t59 10.5q21 0 41 -7t37 -19q14 -11 26 -21t25 -20q8 -8 13.5 -17.5t10.5 -20.5q10 -31 8.5 -61t-15.5 -61l-8 -14t-11 -15q-22 -29 -43 -57.5t-43 -57.5q-29 -35 -52.5 -72t-46.5 -75q-2 -5 -4.5 -12t-4.5 -13q-1 -7 5 -7h24v-1v0z" />
    <glyph glyph-name="three" unicode="3" horiz-adv-x="459" 
d="M212 15q-65 0 -117 38q-28 20 -46 46.5t-23 60.5q-15 79 36 142q8 10 15.5 19t18.5 17q8 5 15.5 6.5t16.5 0.5q13 -3 21 -15.5t3 -25.5q-2 -8 -5 -13.5t-5 -11.5q-8 -11 -13.5 -21.5t-11.5 -21.5q-6 -14 -6 -27.5t2 -27.5q6 -22 29 -29q19 -5 37 -1t35 14
q16 10 37.5 33.5t37.5 51t22 55t-8 45.5q-8 13 -19.5 20.5t-27.5 7.5q-21 0 -41 14q-13 8 -19 20.5t-8 27.5q-3 38 25 63q7 6 14 11l14 10q15 10 29 21t26 25q8 7 8.5 13t-7.5 15q-8 11 -19 16.5t-25 0.5q-24 -5 -45 -18q-7 -5 -12.5 -10.5t-10.5 -12.5q-7 -9 -17 -13
t-20.5 -3t-20 6.5t-14.5 16.5q-11 26 7 52q16 22 38 34q48 28 101 30q58 0 96 -42q25 -31 38 -63q13 -38 2 -72q-5 -9 -9 -18.5t-9 -19.5q-2 -5 -6 -10.5t-8 -11.5q-7 -10 -7 -13.5t8 -10.5q15 -14 26.5 -31t21.5 -35q16 -31 18 -65q2 -46 -7.5 -88t-26.5 -84
q-12 -26 -31 -45q-45 -51 -113 -68q-9 -2 -19 -2.5t-21 -2.5z" />
    <glyph glyph-name="four" unicode="4" horiz-adv-x="463" 
d="M325 533q0 13 1.5 25.5t3.5 25.5q3 18 16.5 28.5t36.5 5.5q3 -1 5.5 -2.5t6.5 -3.5q17 -17 17 -39q1 -30 2.5 -59t2.5 -58q1 -14 2 -26t3 -26v-16t1 -16q1 -13 2 -25t2 -25q0 -7 1 -13t1 -13v-128q0 -17 -3.5 -34t-8.5 -33q-3 -15 -15 -27q-14 -14 -33 -14.5t-33 13.5
q-6 6 -10.5 13t-5.5 15q-6 21 -6 40q1 17 1 32.5t2 30.5q3 15 3.5 30t1.5 30q2 2 -1 5t-5 3q-4 -1 -7.5 -1.5t-8.5 -0.5q-26 -3 -51 -6t-51 -5q-8 -1 -14.5 -1t-12.5 -1q-20 -2 -35 -10q-29 -17 -53.5 -6t-35.5 33q-4 8 -6.5 14.5t-3.5 13.5q-3 23 -5.5 43t1.5 42
q4 20 5 39.5t3 38.5q3 38 8 74.5t15 73.5q3 10 7 19.5t8 18.5q8 13 18 22t26 12q18 4 35.5 -2.5t27.5 -22.5q5 -8 8.5 -15.5t4.5 -17.5q1 -7 2.5 -12.5t1.5 -10.5q5 -66 0.5 -126.5t-13.5 -116.5q-5 -19 -1.5 -22.5t23.5 -3.5q26 1 52.5 2.5t52.5 3.5q8 0 8 9v13v170v0z" />
    <glyph glyph-name="five" unicode="5" horiz-adv-x="490" 
d="M220 667q17 0 34 -0.5t34 0.5q10 0 19.5 1t19.5 1q17 2 35 2.5t35 1.5q7 0 14 -4q23 -9 23 -31q2 -15 -6 -23.5t-18 -10.5q-8 -4 -16.5 -5t-16.5 -2q-6 -2 -12 -1t-13 -1q-13 -1 -25 -1.5t-26 -1.5q-12 0 -24.5 -0.5t-24.5 -0.5h-74q-13 0 -15.5 -2t-4.5 -16
q-4 -15 -6.5 -31t-6.5 -32q0 -8 7 -6l22 6t23 6q15 5 30 7.5t32 1.5q28 -1 53.5 -8.5t49.5 -21.5q34 -24 56 -59q20 -32 31 -67t16 -71q4 -29 -1 -57t-17 -56q-17 -38 -43 -67t-61 -51q-17 -10 -34.5 -17.5t-36.5 -11.5q-13 -4 -24.5 -4.5t-22.5 1.5q-50 6 -89 28t-72 58
q-36 47 -30 107q0 9 5 17t13 12.5t18 5.5t21 -4q12 -5 19 -16q2 -4 4.5 -7.5t4.5 -7.5q17 -32 37 -41.5t39.5 -3.5t37.5 23t31.5 39t21 45.5t5.5 41.5q0 5 -1 8t-2 8q-6 26 -25 40.5t-45 15.5q-20 2 -39.5 2.5t-39.5 -4.5q-10 -2 -19.5 -3.5t-18.5 -2.5q-23 0 -38.5 12.5
t-17.5 38.5q-1 16 2 29.5t7 27.5q6 25 12.5 49.5t12.5 47.5q3 11 7.5 20.5t8.5 20.5q8 23 35 25h42h48v0z" />
    <glyph glyph-name="six" unicode="6" horiz-adv-x="450" 
d="M28 311q-2 57 12 108t41 99q17 29 36.5 54t45.5 46q22 19 46.5 31t53.5 17q32 5 61 -3.5t54 -31.5q42 -37 54 -93q2 -17 -6.5 -29.5t-22.5 -17.5q-11 -2 -23 1.5t-18 15.5q-2 2 -3 6.5t-3 7.5q-4 7 -8 14.5t-8 15.5q-7 11 -19.5 16t-25.5 4q-19 0 -37 -15q-4 -5 -7.5 -9
t-8.5 -9q-10 -15 -16 -31.5t-11 -33.5q-1 -3 1 -5.5t5 -0.5q42 9 81 -8.5t65 -48.5q30 -38 41 -87q21 -83 -8 -167q-20 -56 -69 -88q-32 -22 -67.5 -25.5t-71.5 10.5q-92 32 -139 120q-14 31 -20 64q-3 20 -4 38t-1 35zM244 366q-28 -3 -38 -19.5t-10.5 -38.5t5 -45.5
t9.5 -39.5q5 -22 20 -35.5t35 -20.5q15 -6 29 2q19 9 30 30q16 25 18 57t-8.5 58.5t-33 42t-56.5 9.5z" />
    <glyph glyph-name="seven" unicode="7" horiz-adv-x="407" 
d="M94 652q21 -2 44.5 -5t46.5 -3.5t44.5 3.5t40.5 16q11 11 23 15.5t26 6.5q23 0 42.5 -16.5t22.5 -42.5q3 -21 -4 -46q-8 -41 -22 -79.5t-33 -76.5q-38 -72 -67 -144.5t-55 -148.5q-5 -17 -13 -30q-11 -22 -30 -32t-43 -13q-16 0 -31 6.5t-26.5 17.5t-18.5 25.5t-7 29.5
q-2 25 5 42q11 32 22 62.5t22 61.5q2 5 4 11t5 12q4 11 1 12.5t-10 -0.5q-20 -3 -36 4q-18 6 -19 21q-1 10 0.5 19t10.5 15q13 11 28 11h35q12 0 20.5 4t13.5 17q11 27 24 53l26 52q5 10 10 19.5t10 20.5q0 3 -1 5h-1q-1 0 -2 1q-10 -2 -32.5 -2t-46.5 2.5t-44.5 7.5
t-26.5 13q-12 17 -3.5 32.5t24.5 17.5q6 2 11.5 2t9.5 1z" />
    <glyph glyph-name="eight" unicode="8" horiz-adv-x="427" 
d="M205 28q-47 0 -77.5 13.5t-52.5 40.5q-54 65 -39 148q5 31 18 58.5t33 53.5q4 9 0 14q-5 5 -9.5 10t-8.5 10q-28 32 -36 70.5t-0.5 76t28.5 70.5t51 55q25 20 54 32t60 17q17 4 34 3t33 -6q29 -11 52.5 -28.5t37.5 -45.5q9 -19 16 -37t5 -39q0 -31 -14 -55
q-7 -13 -14 -25t-16 -23q-18 -22 -38 -44q-6 -7 -6 -9t6 -9q5 -7 12 -14t12 -15q17 -21 27 -44t16 -49q8 -40 -2.5 -73.5t-32.5 -63.5q-10 -14 -21 -26t-24 -24q-25 -22 -53.5 -31.5t-50.5 -10.5zM324 567q-2 6 -2 12t-2 11q-12 22 -39 28q-35 3 -62 -11t-39.5 -36.5t-6 -49
t39.5 -49.5q9 -9 18.5 -16.5t19.5 -15.5q5 -5 9 1q3 5 7 8.5t7 8.5q15 18 25.5 38t18.5 43q2 6 3 13.5t3 14.5zM202 257q-13 11 -25.5 21.5t-25.5 21.5q-7 4 -11 -2q-11 -18 -18 -36t-12 -38q-2 -18 4 -35.5t17.5 -29t28 -15.5t34.5 4q17 7 23.5 21t6 30t-6.5 32t-15 26z
" />
    <glyph glyph-name="nine" unicode="9" horiz-adv-x="483" 
d="M443 440q11 -40 10.5 -80.5t-6.5 -81.5q-4 -31 -14 -59.5t-25 -56.5t-35.5 -52.5t-44.5 -45.5q-7 -6 -13.5 -11.5t-14.5 -10.5q-44 -30 -98 -21q-24 4 -46 13.5t-40 28.5q-8 9 -17 19t-18 22q-15 22 -23 47t-12 51q-1 14 1.5 26.5t7.5 24.5q9 22 34 22q11 0 19 -7t11 -18
q2 -10 2 -18q1 -57 14 -80.5t32 -23.5t40 18.5t38 45.5q8 12 18 36t15.5 47t1.5 38.5t-23 11.5q-17 -3 -32 -2t-31 3q-30 8 -57.5 21t-51.5 32q-53 47 -59 114q-4 23 3 44.5t21 40.5q40 55 104 86q24 11 52.5 14.5t56 -2t53 -19.5t45.5 -38q20 -23 34 -48.5t26 -51.5
q8 -20 14 -39.5t8 -39.5zM175 573q-20 -8 -33.5 -21.5t-24.5 -29.5q-2 -4 -3 -8l-2 -8q-1 -12 1.5 -23.5t10.5 -19.5q14 -23 34 -38.5t47 -20.5q17 -2 32 1t29 10q6 3 8.5 18.5t1.5 36t-7 43t-18 39t-30.5 24t-45.5 -2.5z" />
    <glyph glyph-name="grave" unicode="`" horiz-adv-x="236" 
d="M76 723q15 -2 27 -7q8 -4 14.5 -8t11.5 -9q19 -14 35.5 -28.5t30.5 -31.5q8 -12 14 -23q11 -26 -12 -45q-8 -8 -20 -9t-23 5q-7 5 -13 9t-12 9q-17 14 -34.5 26.5t-34.5 26.5q-8 5 -14 12t-9 15q-9 23 4 41t35 17z" />
    <glyph glyph-name="quotesingle" unicode="'" horiz-adv-x="151" 
d="M31 675q1 10 1 19.5t2 17.5q6 30 34 40q10 3 24 -2t19 -13q13 -18 10 -40q-2 -16 -5.5 -32t-8.5 -31q-2 -5 -4.5 -9t-7.5 -8q-13 -13 -28.5 -10t-23.5 14t-9 21q-1 8 -1.5 16.5t-1.5 16.5z" />
    <glyph glyph-name="asciitilde" unicode="~" horiz-adv-x="518" 
d="M478 298q-5 -49 -26 -88.5t-65 -66.5q-12 -7 -25.5 -11.5t-26.5 -4.5q-18 -2 -34.5 3t-30.5 14q-17 10 -29.5 23t-22.5 29q-8 16 -14 31.5t-12 31.5q-3 7 -6 12.5t-5 11.5q-5 5 -13 3q-10 -4 -13 -8q-42 -29 -52 -76q-1 -2 -0.5 -4.5t-0.5 -4.5q-2 -13 -10 -20t-20 -8
q-28 -2 -36 24q-4 12 -1 24q5 27 17 48q15 25 33.5 46t42.5 36q10 6 19.5 9t18.5 7q26 8 54 -5q15 -6 28.5 -16t24.5 -23q10 -12 19.5 -23t20.5 -22q5 -6 10.5 -11t11.5 -10q7 -5 18 0q8 5 15 10.5t11 13.5q11 17 16 31q4 6 7 12.5t6 12.5q6 8 14 13.5t19 5.5
q13 0 23.5 -8.5t12.5 -22.5q1 -5 1 -19z" />
    <glyph glyph-name="exclam" unicode="!" horiz-adv-x="244" 
d="M31 623q0 38 6 77q3 20 10 38t19 35q18 28 53 31q32 2 54 -23q11 -13 17 -27q14 -35 19 -88.5t4 -110t-6.5 -110t-11.5 -88.5q-3 -21 -8.5 -42.5t-11.5 -41.5q-8 -27 -28 -40q-17 -10 -37.5 -9t-34.5 14t-20 30q-10 28 -17 56.5t-7 58.5q2 62 -0.5 121t0.5 119zM30 103
q1 31 22.5 49.5t53.5 18.5q30 -1 49.5 -22.5t19.5 -53.5q0 -31 -22 -50.5t-56 -18.5q-31 2 -49.5 23t-17.5 54z" />
    <glyph glyph-name="at" unicode="@" horiz-adv-x="699" 
d="M419 718l34 -2t35 -5q75 -14 118 -74q31 -42 45.5 -90.5t12 -97t-21.5 -94t-55 -81.5q-14 -14 -30 -24q-26 -14 -52 -13t-46 21q-7 6 -10 6t-11 -6q-2 -2 -4 -3.5t-4 -3.5q-6 -4 -11.5 -7t-10.5 -6q-20 -11 -43 -7t-38 20q-32 33 -38 81q-6 76 51 129q13 13 29 20t34 9
q9 2 18 1.5t18 0.5q29 1 59 -16q6 -4 14 -6q17 -8 23 -19t1 -30q-3 -12 -6.5 -23.5t-5.5 -23.5q-3 -11 -4.5 -22t-3.5 -22v-11q1 -1 1.5 -2.5t1.5 -2.5q3 0 5 1q10 6 16 19q29 54 21.5 99.5t-39 74t-79.5 36.5t-99 -13q-43 -18 -72.5 -52t-44.5 -75.5t-16 -86t13 -83.5
q3 -8 8 -16l10 -16q12 -21 34 -38.5t47.5 -28.5t52 -13t48.5 8q14 8 26 16t23 19q13 12 29 16q19 8 36.5 -3t20.5 -31q3 -22 -12 -35q-7 -8 -15 -16.5t-16 -15.5q-23 -19 -49 -34.5t-54 -29.5q-12 -6 -24.5 -8.5t-25.5 -4.5q-48 -5 -98 7t-93 38t-75 64t-44 86
q-16 61 -13 123.5t21.5 121t52 109t79.5 88t103 58.5t123 20zM372 325q2 -4 3.5 -9t3.5 -10q0 -3 5 -4.5t7 0.5q3 4 7 7t6 7l16 26t16 24q2 4 3 7.5t2 6.5q1 2 -0.5 4t-3.5 1q-9 -3 -17.5 -5t-16.5 -6q-25 -15 -31 -49z" />
    <glyph glyph-name="numbersign" unicode="#" horiz-adv-x="644" 
d="M320 478q-1 -21 1.5 -23.5t23.5 -0.5q4 0 7 1t6 1q17 0 22 20q8 26 18.5 50.5t24.5 47.5q9 19 24 33q14 13 30.5 16.5t31.5 -1.5t26.5 -17t15.5 -29q9 -28 4 -60q-1 -5 -1.5 -11t-1.5 -11q-1 -10 -1 -15t2 -7t7 -3t14 -4q5 -2 10 -3.5t10 -3.5q9 -7 12.5 -17t-1.5 -20
q-3 -9 -11.5 -13.5t-19.5 -2.5q-6 1 -11.5 1.5t-11.5 1.5q-8 2 -11 -8t-5.5 -19.5t-4.5 -20.5q-4 -20 -1.5 -23t21.5 -4h14.5t13.5 -2q11 -2 18 -11t6 -20q0 -24 -25 -29q-13 -2 -25.5 -3t-26.5 -3q-13 -1 -16 -12q-1 -10 -2.5 -19.5t-2.5 -19.5q-2 -14 -6.5 -29t-9.5 -29
q-4 -14 -8.5 -27.5t-9.5 -27.5q-2 -11 -8.5 -18.5t-15.5 -14.5q-17 -14 -39 -11.5t-41 19.5q-13 9 -20 31q-3 8 -5.5 17t-2.5 18q-2 20 -5 40t-1 40q0 3 -1 5q0 8 -7 6q-8 -2 -14.5 -4t-14.5 -4q-2 -6 -3.5 -12.5t-2.5 -14.5q-1 -3 -1 -8v-10q0 -21 -3.5 -41.5t-9.5 -40.5
q-7 -23 -22.5 -38t-44.5 -19q-13 -2 -25 3.5t-23 13.5q-25 21 -33 53q-4 17 -7.5 33.5t-3.5 34.5v8q-2 7 -7 7l-10 -2l-10 -2q-16 -1 -31 6q-12 4 -18 13t-6 21q0 25 23 34q5 2 10.5 3.5t9.5 3.5q5 1 10 1t10 2q8 3 13 4t8 3t4 7.5t1 16.5q0 8 1.5 16t2.5 16q0 14 -12 10
q-8 -2 -16 -3t-17 -2q-13 0 -23.5 10.5t-12.5 24.5q-2 11 5.5 22t18.5 15q12 4 27 6q5 1 11 1h11q11 2 14 5.5t6 14.5q2 14 4.5 26.5t5.5 24.5q5 23 15.5 43.5t22.5 39.5l12 15q9 10 23 15t29.5 4t30 -9.5t23.5 -24.5q12 -27 15 -56v-27v-14zM311 315q4 0 7 1q11 1 17 2.5
t9 4.5t4.5 8.5t3.5 16.5q0 2 0.5 3t0.5 3q1 8 2 15t2 13q-8 4 -15.5 1.5t-16.5 -3.5q-13 0 -16.5 -3.5t-5.5 -17.5q-2 -9 -3 -18l-2 -18q0 -8 10 -8h3z" />
    <glyph glyph-name="dollar" unicode="$" horiz-adv-x="444" 
d="M359 128q-20 -20 -43.5 -33.5t-50.5 -20.5q-11 -2 -17 -8t-11 -15q-1 -6 -4 -12.5t-7 -12.5q-10 -18 -34 -21q-17 -2 -31.5 10.5t-16.5 32.5q-1 7 -1 12.5v12.5q0 10 -7 14q-10 5 -19 11q-26 17 -44.5 40t-30.5 52q-8 23 -9.5 45t0.5 45q1 9 4.5 15.5t8.5 14.5
q14 20 42 15q23 -4 29 -30q1 -5 1.5 -10.5t1.5 -11.5q10 -32 28 -48.5t37 -20.5t36 4t24 24t1.5 39t-31.5 50q-13 14 -29.5 22.5t-33.5 16.5q-23 13 -43 28.5t-39 32.5q-27 26 -34 64q-4 16 -2 31t6 29q23 81 94 121q34 18 71 18q5 -1 10 -0.5t10 0.5q6 0 8 7q3 16 3 32
q2 15 8 24q14 22 43 20q24 -2 36 -24q5 -9 4.5 -18.5t-2.5 -18.5q-1 -6 -5 -11q-2 -8 -5.5 -15.5t-3.5 -15.5q6 -5 12.5 -8.5t12.5 -7.5q14 -11 26 -22.5t23 -25.5q20 -28 19 -63q-1 -12 -7.5 -22t-17.5 -13q-31 -8 -48 14q-2 3 -3 6t-3 6q-9 18 -27 26q-10 7 -29 10.5
t-38 2.5t-33 -8.5t-14 -22.5q0 -4 4.5 -5t7.5 -2q31 -12 59 -28t54 -35q11 -8 21 -16.5t20 -18.5q32 -30 48 -69.5t17 -81.5t-13 -82t-43 -70z" />
    <glyph glyph-name="percent" unicode="%" horiz-adv-x="516" 
d="M454 592q1 -15 -2 -25t-7 -19q-17 -33 -33 -65t-33 -65q-10 -20 -19 -40t-19 -40q-18 -39 -38.5 -77t-41.5 -76q-11 -22 -22.5 -43.5t-23.5 -44.5q-2 -4 -3.5 -7.5t-3.5 -7.5q-15 -24 -41 -21q-14 2 -23.5 10t-11.5 22q0 8 0.5 15t2.5 13q5 23 13.5 46t16.5 45
q16 42 33 83t40 80q23 44 47.5 86.5t47.5 87.5q6 11 12 22.5t12 22.5q2 4 4 7.5t4 7.5q6 10 17 16.5t23.5 7t24 -5.5t18.5 -19q3 -5 4 -9.5t2 -6.5zM391 233q17 0 33 -6.5t28 -18t19 -27t7 -33.5q0 -16 -5.5 -31.5t-18.5 -27.5q-25 -26 -61 -26q-15 0 -30 5.5t-27 16t-20 26
t-9 34.5q0 20 7.5 36t19.5 27.5t27 18t30 6.5zM38 535q0 34 24 58t59 25q17 0 32 -6.5t26.5 -18t18.5 -27t7 -32.5q0 -18 -6.5 -33.5t-18 -27t-27 -18t-32.5 -6.5q-20 0 -36 8t-26.5 20.5t-16 28t-4.5 29.5z" />
    <glyph glyph-name="asciicircum" unicode="^" horiz-adv-x="315" 
d="M282 505q-2 -22 -12 -32.5t-31 -13.5q-10 -1 -19 4t-16 13q-10 13 -14 24q-8 17 -12.5 34t-9.5 34q0 3 -2 9l-5 5q-1 0 -2 -1l-2 -2q-13 -25 -25.5 -49t-18.5 -52q-6 -25 -37 -27q-26 -2 -39 19q-13 23 -1 42q23 35 40.5 73t40.5 73l14 24l14 24l2 2q18 27 41 24.5
t40 -22.5q7 -11 12 -27q11 -31 19.5 -63.5t13.5 -66.5q2 -11 3.5 -20t3.5 -20q1 -2 1 -4t1 -4z" />
    <glyph glyph-name="ampersand" unicode="&#x26;" horiz-adv-x="557" 
d="M31 187q3 31 11 60.5t25 56.5q13 20 28.5 37.5t32.5 34.5q4 4 9.5 8.5t7.5 9.5t-0.5 11.5t-4.5 11.5q-8 27 -10 53.5t1 53.5q3 50 24 92q13 29 33 50.5t48 37.5q23 14 48 20t51 8q17 2 34.5 -1.5t33.5 -10.5q26 -11 48.5 -28t39.5 -40q37 -51 27 -112q-15 -89 -86 -148
q-19 -17 -39.5 -31t-40.5 -29l-20 -16t-21 -16q-7 -3 -1 -9q13 -12 25.5 -24t24.5 -24q2 -2 5 -2t5 -2q1 3 1.5 5.5t0.5 5.5q1 5 0.5 10t0.5 10q1 7 2 13.5t3 12.5q6 14 15.5 21.5t20.5 9.5t21.5 -1t17.5 -10q23 -20 17 -50q-3 -18 -8 -35.5t-13 -35.5q-2 -4 -5 -8t-5 -8
q5 -4 8.5 -8t7.5 -7q12 -10 24.5 -19.5t27.5 -17.5q11 -5 16 -12.5t7 -18.5q6 -26 -14 -41q-26 -20 -55 -7q-19 6 -33 20q-9 8 -18 16.5t-19 16.5q-6 5 -9.5 4.5t-10.5 -5.5q-8 -8 -14.5 -15t-13.5 -15q-20 -18 -44 -30t-52 -17q-30 -5 -59.5 -0.5t-56.5 17t-49.5 33
t-36.5 48.5q-6 12 -10.5 31t-3.5 35zM213 459q1 -5 4.5 -6.5t8.5 1.5q20 14 41.5 29.5t42.5 31.5q6 5 12.5 10.5t11.5 11.5q14 15 11 33q0 6 -5 9q-7 5 -13 5q-39 6 -73 -12q-20 -12 -27 -30q-16 -28 -14 -61v-22zM263 121q2 1 5.5 2t8.5 4q11 6 19.5 14.5t16.5 17.5
q5 5 -1 9q-17 18 -34.5 35.5l-34.5 34.5q-2 4 -7 1q-14 -13 -22 -28t-9 -36q0 -22 16 -38.5t42 -15.5z" />
    <glyph glyph-name="asterisk" unicode="*" horiz-adv-x="428" 
d="M162 403q-15 0 -26.5 12.5t-7.5 32.5q2 11 5.5 21t5.5 21v5q-3 2 -5 0q-6 -4 -11 -7.5t-11 -6.5q-5 -3 -9 -6t-9 -5q-19 -11 -38 -2t-23 31q-2 10 0.5 18.5t8.5 14.5q5 6 11 10.5t12 9.5q20 15 42 27t44 22q10 4 2 10q-11 9 -21 18t-21 18q-3 2 -6.5 4.5t-6.5 4.5
q-11 9 -13.5 19.5t0.5 23.5q4 11 13 16t20 7q7 0 13.5 -0.5t12.5 -4.5q14 -6 25.5 -14.5t22.5 -18.5q3 -2 6 -5t6 -5q0 -1 2 -0.5t3 1.5q1 2 2 3.5t2 3.5q5 13 11 25.5t12 25.5q2 4 5 8t5 7q10 11 23 13t26 -5q25 -14 19 -45q-2 -11 -5 -21t-6 -21q-2 -4 -2 -14q0 -1 2 -3
t3 -1q8 2 14.5 3.5t14.5 3.5q7 2 13.5 3t14.5 2q15 0 21.5 -13t3.5 -24q-6 -16 -17 -21l-18 -8t-17 -8q-15 -5 -27 -12q-2 0 -2 -4q2 -4 6 -10q11 -14 22.5 -27.5t22.5 -27.5q5 -8 8.5 -16t1.5 -18q-2 -23 -25 -28q-17 -3 -29 6q-11 9 -23 18q-10 10 -19 19.5t-18 19.5
q-9 7 -14 -4q-7 -15 -14 -29l-14 -28q-5 -8 -9 -15.5t-9 -15.5q-10 -14 -32 -14z" />
    <glyph glyph-name="parenleft" unicode="(" horiz-adv-x="424" 
d="M40 316q-1 60 17.5 127t52.5 127t82.5 106.5t107.5 64.5q16 5 31.5 4.5t30.5 -9.5q27 -16 28 -44q0 -14 -3 -22.5t-8 -14t-12.5 -10t-16.5 -11.5q-36 -27 -67.5 -68t-53.5 -89t-31.5 -99.5t-2 -99t34.5 -88.5t79 -67q8 -4 15 -7t14 -8q27 -17 35.5 -44t0.5 -53
q-8 -29 -33 -46t-55 -15q-8 1 -17 3.5t-17 5.5q-29 13 -54.5 29.5t-48.5 38.5q-26 26 -44.5 55.5t-31.5 64.5q-12 30 -19 61.5t-12 63.5q-2 11 -2 22v22z" />
    <glyph glyph-name="hyphen" unicode="-" horiz-adv-x="432" 
d="M321 374q28 0 47.5 -17.5t20.5 -44.5q2 -40 -34 -60q-9 -5 -17.5 -7.5t-18.5 -2.5q-51 2 -98 4.5t-95 7.5q-11 2 -22 2.5t-22 2.5q-19 5 -29 14q-17 14 -17 36.5t13 36.5q12 11 28 17q14 5 27 8t27 3q11 1 20.5 1h20.5q38 2 75 1.5t74 -2.5z" />
    <glyph glyph-name="underscore" unicode="_" horiz-adv-x="400" 
d="M127 43h-21.5t-21.5 1q-7 0 -14 1t-13 3q-14 3 -22.5 10.5t-6.5 18.5q3 16 29 24q11 3 21 5t21 4q23 3 58.5 6.5t72.5 4t69 -2t49 -11.5q22 -10 22 -29q1 -15 -21 -28q-15 -8 -44.5 -10.5t-62.5 -1.5t-64.5 3t-50.5 2z" />
    <glyph glyph-name="divide" unicode="&#xf7;" horiz-adv-x="480" 
d="M232 393q15 -1 30.5 -2t31.5 -3q13 0 26 -0.5t27 1.5q11 2 22.5 0.5t22.5 -3.5q20 -5 34 -24t15 -37q2 -33 -18 -54t-51 -23q-19 -2 -38 -1.5t-38 3.5q-7 2 -13.5 2t-14.5 1q-9 1 -17.5 2t-17.5 2q-11 1 -21 1h-21q-22 1 -43.5 1h-43.5q-14 0 -26 5.5t-22 14.5
q-8 7 -11.5 17.5t-3 22t4.5 21.5t10 16q7 7 13 11.5t14 6.5q12 3 23.5 6t22.5 5q26 3 51.5 4.5t51.5 3.5zM294 183q0 -23 -15.5 -38t-38.5 -15q-22 0 -38.5 16.5t-15.5 38.5q2 27 18 40.5t39 12.5q23 0 37.5 -16t13.5 -39zM243 415q-22 0 -35 14.5t-12 34.5q1 17 14.5 32
t34.5 15q22 0 35.5 -16.5t12.5 -32.5q-1 -21 -14.5 -34.5t-35.5 -12.5z" />
    <glyph glyph-name="equal" unicode="=" horiz-adv-x="428" 
d="M312 310q10 0 19.5 -0.5t18.5 -5.5q20 -8 31 -27t9 -39q-2 -19 -14 -36t-32 -23q-5 -2 -11.5 -3t-12.5 -1q-17 2 -34 1.5t-35 1.5t-36.5 2h-36.5h-75q-10 0 -19.5 1.5t-17.5 6.5q-16 9 -24 23t-8 31q0 38 35 54q10 4 21 6q22 5 44.5 6.5t45.5 1.5h49.5h35.5h26h21z
M154 355q-25 -1 -51 5q-6 1 -12 2.5t-12 3.5q-14 6 -20.5 16.5t-6.5 22t6.5 22t19.5 16.5q19 8 38.5 14t40.5 8q15 2 29 2.5t29 -1.5q9 -2 17.5 -1.5t17.5 -0.5q21 -2 41.5 -2t40.5 -2q26 -2 42.5 -17t17.5 -37q0 -17 -14 -32.5t-40 -18.5q-5 -1 -10 -1h-10q-55 0 -92.5 0.5
t-71.5 0.5z" />
    <glyph glyph-name="plus" unicode="+" horiz-adv-x="414" 
d="M299 263q-15 2 -18 -0.5t-5 -18.5q-2 -11 -3.5 -22t-3.5 -22q-8 -26 -33 -34q-22 -9 -38.5 2t-21.5 25q-7 17 -7 30q1 9 0.5 18.5t-0.5 19.5q0 11 -11 13h-10t-10 1q-14 2 -28 3.5t-28 3.5q-25 3 -38 20q-9 14 -6 30t17 26q11 11 28 10q11 0 20.5 -0.5t20.5 -1.5t23 -1.5
t23 -0.5q9 -1 10 10q2 17 3.5 34t3.5 34q1 9 5 22q10 28 42 28q15 -1 26 -9t14 -23q2 -9 3 -18.5t2 -19.5q1 -12 0.5 -24t0.5 -26q0 -9 8 -7q18 6 35 2t31 -14q12 -6 17.5 -17t5.5 -23t-6.5 -23t-18.5 -17q-12 -8 -24 -9.5t-26 -0.5h-3z" />
    <glyph glyph-name="bracketleft" unicode="[" horiz-adv-x="412" 
d="M46 371q0 24 0.5 46.5t-0.5 45.5q-1 26 1.5 52t4.5 52q1 11 4 22t7 20q18 43 43 84q33 49 93 58q19 4 38 4.5t39 2.5q14 1 29 -1.5t29 -4.5q17 -2 29.5 -14.5t16.5 -29.5q2 -18 -7 -29q-9 -14 -24 -20q-12 -4 -25.5 -7.5t-27.5 -4.5q-13 -1 -25 -1.5t-24 -2.5
q-10 -2 -13 -3q-12 -3 -12 -14q-2 -14 0 -28q2 -29 1.5 -58.5t-2.5 -59.5q-2 -53 -2.5 -104.5t0.5 -104.5q0 -26 2 -52t7 -52q2 -8 4.5 -17t7.5 -17q7 -10 10 -15t6 -7.5t8.5 -2.5h17.5h26q18 -1 32.5 -16t15.5 -35q0 -23 -14 -37.5t-30 -16.5q-7 -1 -13.5 -1.5t-11.5 -1.5
q-16 -2 -31.5 -5t-31.5 -7q-37 -8 -71.5 3t-57.5 47q-8 14 -14.5 27t-11.5 28q-7 24 -11.5 48t-7.5 49q-5 45 -4.5 90.5t0.5 90.5z" />
    <glyph glyph-name="braceleft" unicode="{" horiz-adv-x="329" 
d="M73 137q3 19 5 38t5 37q3 20 6.5 39.5t6.5 39.5q1 3 1 9q0 9 -8 10q-25 3 -43 18q-9 9 -13.5 20.5t-4.5 24.5t4.5 24.5t13.5 20.5q14 14 29 18q13 4 24 15q7 8 11 17.5t3 20.5q0 16 -0.5 32t-3.5 33q-3 13 -4 27l-2 28q-2 30 5.5 58t28.5 53q18 21 41.5 32.5t52.5 9.5
q18 -2 32.5 -9.5t24.5 -23.5q11 -15 9 -32.5t-16 -29.5q-6 -5 -12.5 -10t-14.5 -9q-17 -8 -25.5 -21.5t-10.5 -32.5q-4 -20 -2 -37.5t3 -35.5q1 -11 3.5 -22t4.5 -22q4 -26 0.5 -50.5t-18.5 -46.5q-3 -5 -4 -7q-6 -5 -1 -13q0 -1 0.5 -1t0.5 -1q17 -33 19.5 -68.5
t-4.5 -70.5q-2 -21 -5 -42.5t-5 -42.5q-1 -5 1 -11t4 -13q1 -4 6 -6t8.5 -2.5t8.5 -2.5q8 -2 15 -5.5t14 -10.5q11 -12 12 -27.5t-10 -29.5q-10 -12 -28 -18q-15 -6 -30 -8.5t-32 -3.5q-35 0 -60 24q-11 10 -19 22.5t-13 26.5q-14 34 -14 68z" />
    <glyph glyph-name="less" unicode="&#x3c;" horiz-adv-x="379" 
d="M296 501q29 0 44.5 -19.5t8.5 -44.5q-5 -12 -13 -24q-11 -17 -26 -30t-32 -25q-13 -10 -26 -19t-27 -19q-9 -7 -1 -11q13 -8 25.5 -13.5t23.5 -11.5q8 -5 16 -11t15 -14q6 -8 8.5 -18.5t-0.5 -21.5t-11 -20t-22 -13q-13 -5 -25.5 -3t-25.5 5q-15 4 -30 9t-31 10
q-17 8 -34.5 15t-35.5 14q-12 6 -23 12.5t-21 16.5q-15 16 -18 35t4 39q5 15 16 26.5t25 20.5q14 8 27.5 15.5t27.5 15.5q50 31 99 58q12 7 24 12.5t23 10.5q5 2 9 2.5t6 0.5z" />
    <glyph glyph-name="multiply" unicode="&#xd7;" horiz-adv-x="405" 
d="M282 181q-12 -2 -22 7q-6 5 -12.5 10.5t-12.5 10.5q-13 14 -25 26.5t-24 25.5q-9 9 -18 1q-11 -11 -20.5 -21t-20.5 -19q-5 -5 -10 -10.5t-12 -10.5q-18 -13 -39 -6q-19 8 -23 28.5t12 35.5q5 5 9 8t8 7q12 11 25 22.5t26 23.5q5 5 1 10q-7 8 -13.5 16t-11.5 16
q-7 9 -12 17.5t-10 18.5q-14 31 8 59q22 22 56 13q14 -3 24.5 -10.5t15.5 -21.5q5 -13 13.5 -21.5t16.5 -17.5q2 -2 5 -2.5t4 1.5q8 4 14 8l12 8q14 10 29 20t31 21q14 9 27 9q14 1 24 -13t2 -29q-8 -13 -18 -19q-18 -15 -36.5 -29.5t-36.5 -29.5q-8 -7 -8 -9.5t5 -12.5
q11 -18 23 -35l24 -34q5 -8 7.5 -15.5t1.5 -17.5q0 -18 -10.5 -28.5t-28.5 -10.5z" />
    <glyph glyph-name="comma" unicode="," horiz-adv-x="239" 
d="M192 132q1 -24 -4 -45.5t-14 -41.5q-5 -15 -12.5 -28t-15.5 -26q-8 -11 -18.5 -18t-24.5 -6q-10 0 -18.5 5t-14.5 12.5t-8 16.5t0 17q3 13 9 23q2 5 5 9.5t5 9.5q4 5 -1 10q-3 2 -7 4q-15 11 -22 27t-8 35q-1 20 7.5 34.5t22.5 26.5q18 15 40 14.5t40.5 -11.5t30 -29.5
t8.5 -38.5z" />
    <glyph glyph-name="period" unicode="." horiz-adv-x="224" 
d="M181 146q1 -14 -4.5 -27t-15.5 -23t-23 -15.5t-26 -5.5q-14 0 -27 6t-23 16t-15.5 23t-5.5 27q0 28 20.5 49t49.5 21q28 -1 49.5 -21.5t20.5 -49.5z" />
    <glyph glyph-name="question" unicode="?" horiz-adv-x="522" 
d="M33 516q-1 35 11.5 63t33.5 53q25 28 54.5 50t64.5 39q21 9 43.5 15.5t46.5 6.5q20 0 38 -5t36 -13q76 -36 109 -120q13 -31 14 -64q1 -21 -3.5 -41.5t-15.5 -38.5q-5 -10 -11.5 -19t-13.5 -17q-24 -29 -54 -53t-58.5 -48t-53 -51t-38.5 -62q-4 -8 -6.5 -15.5t-7.5 -15.5
q-5 -11 -14 -16.5t-19.5 -6t-20.5 4.5t-17 15q-5 8 -8 17t-5 18q-8 32 -5 62t18 59q14 28 34 51t46 43q21 17 44 30.5t40 33.5q21 27 23.5 54t-9 48t-33.5 32t-48.5 5t-56 -32t-55.5 -79q-3 -7 -5 -13t1 -14q3 -5 3 -12q2 -19 -10.5 -30t-27.5 -12q-21 -2 -35.5 10t-22.5 27
q-5 10 -5.5 20.5t-0.5 20.5zM183 139q13 1 26 -5t22.5 -16.5t15.5 -23.5t6 -27q-2 -29 -23 -48t-50 -20q-27 0 -47.5 19.5t-21.5 48.5q0 16 6 30t16 23.5t23 14.5t27 4z" />
    <glyph glyph-name="bar" unicode="|" horiz-adv-x="220" 
d="M33 214q0 70 3.5 133.5t9 124.5t12.5 121t15 123q1 2 1 7q5 14 16 22.5t28 9.5q15 1 27.5 -5t19.5 -23q5 -11 7 -24q2 -19 3.5 -37t2.5 -36q2 -102 -1.5 -190t-8.5 -176q-2 -29 -4.5 -58t-5.5 -58q-3 -18 -4.5 -36.5t-3.5 -37.5q-2 -13 -3 -25t-3 -24q-3 -15 -14.5 -25.5
t-33.5 -11.5q-11 -1 -22 4.5t-19 16.5q-7 11 -10 22t-5 23q-5 37 -5.5 75.5t-1.5 84.5z" />
    <glyph glyph-name="Euro" unicode="&#x20ac;" horiz-adv-x="543" 
d="M285 253q-9 -2 -18.5 -3.5t-19.5 -3.5q-6 -2 -4 -8q5 -11 9.5 -22t12.5 -22q13 -19 38 -31q11 -3 21.5 -5.5t21.5 -3.5q19 -1 32 12q5 7 9.5 13.5t8.5 14.5q10 20 15 41t10 41q2 8 3.5 16t4.5 16q4 12 16 18t25 2q18 -6 23 -27q4 -11 3 -21t-3 -20q-3 -24 -9 -47.5
t-16 -46.5q-5 -11 -11.5 -21.5t-11.5 -21.5q-14 -23 -35 -36.5t-47 -19.5q-23 -5 -49 -2q-52 1 -99 30q-37 23 -58 57q-9 14 -16 27.5t-11 29.5q-1 2 -1 3t-1 2q-5 8 -6.5 13t-3.5 7t-7 1.5t-16 -3.5q-5 -1 -8.5 -2t-8.5 -1q-13 -2 -24.5 7t-15.5 23t4 28t17 17t17 5.5
t16 5.5q5 2 8 9t0 11q-3 3 -6 2q-5 -1 -10.5 -1t-11.5 -1q-5 -2 -11.5 -1.5t-10.5 2.5q-24 9 -28 34q-1 11 3.5 20.5t14.5 15.5q7 5 13.5 7.5t14.5 3.5q12 2 20 4q6 2 7.5 3.5t3.5 9.5v6.5t2 6.5q3 22 8 43.5t13 41.5q18 52 53 88t88 53q23 8 48.5 10t51.5 -1q18 -2 36 -6
t35 -13q18 -11 32 -24t24 -32q16 -24 25 -55q7 -20 -3.5 -33t-27.5 -17q-17 -3 -29 9q-4 3 -7.5 7t-7.5 8q-5 9 -14 16.5t-17 15.5q-15 12 -34 15t-38.5 -1t-37.5 -13.5t-29 -20.5q-16 -18 -27.5 -39t-16.5 -46q0 -7 7 -7q15 2 30 2.5t30 1.5q9 1 18 1h18q10 0 15 -4
q25 -8 25 -35q0 -10 -7 -18.5t-18 -12.5q-2 -1 -6.5 -1.5t-8.5 -1.5q-18 -2 -35 -5t-34 -3q-8 0 -15.5 -1.5t-15.5 -2.5q-7 -1 -8 -10v-18q0 -12 11 -10q19 1 39 1.5t40 0.5h9t7 -1q25 -4 28 -29q3 -14 -4 -25t-19 -14l-6 -2t-5 -1q-9 -2 -18 -3t-17 -3l-1 1v0z" />
    <glyph glyph-name="sterling" unicode="&#xa3;" horiz-adv-x="486" 
d="M293 694q60 2 104 -44q11 -12 18 -26.5t10 -29.5q3 -14 0.5 -27.5t-8.5 -25.5q-4 -8 -12 -13t-17 -6.5t-17.5 1.5t-14.5 11l-6 9q-2 2 -4 5.5t-4 6.5q-10 12 -19 15t-23 0q-26 -7 -33 -31q-6 -26 -9.5 -53t0.5 -54q2 -11 2 -23t2 -24q0 -11 1 -17.5t4.5 -9.5t10 -4
t18.5 -2q9 -1 17.5 -1t17.5 -1q10 -1 19.5 -1.5t18.5 -2.5q25 -6 27 -32q2 -9 -5 -19.5t-18 -14.5q-15 -6 -34 -6h-26.5t-25.5 -1q-11 0 -11 -10q3 -43 -9 -84q-3 -8 6 -10q20 -5 39.5 -8t39.5 -8q10 -3 19.5 -6t19.5 -5q6 -2 12 -3t13 0q32 1 41 -31q3 -8 0 -16
q-8 -19 -22.5 -27.5t-33.5 -10.5q-14 -2 -26 0t-25 5q-24 7 -47.5 10.5t-47.5 9.5q-5 2 -10.5 1.5t-10.5 -0.5q-23 1 -41 -14q-11 -13 -25 -21.5t-29 -16.5q-7 -5 -14.5 -8t-15.5 -5q-25 -5 -49 9t-30 38q-10 46 25 73q6 5 11.5 9t10.5 8q16 10 28.5 23t22.5 27q18 31 18 65
q0 12 -10 12h-32q-13 2 -22.5 7.5t-14.5 18.5q-6 11 -3 24.5t13 21.5q16 11 32 11h20q11 0 11 10q-1 10 -1 19.5t-1 20.5q-5 29 -4.5 57.5t4.5 57.5q2 20 6.5 39t12.5 37q12 34 38 58q21 18 45 25.5t53 7.5z" />
    <glyph glyph-name="yen" unicode="&#xa5;" horiz-adv-x="510" 
d="M188 617q0 -32 -2.5 -63t-6.5 -63q-2 -12 0 -24q1 -17 1.5 -33t2.5 -33q1 -11 9 -6q16 7 28 21q26 27 48 57t41 62q11 18 19.5 36.5t19.5 35.5q7 12 13 23.5t13 22.5q18 27 49 24q34 -4 43 -40q6 -16 2 -32q-4 -25 -8.5 -49t-9.5 -49q-9 -48 -19 -94.5t-20 -93.5
q-1 -1 -1 -3q-1 -7 -2 -14.5t-3 -15.5q6 -5 14 -5.5t15 -3.5q8 -3 14 -6.5t12 -8.5q17 -15 9 -37q-3 -9 -10 -15t-17 -6q-7 0 -14.5 1t-15.5 2q-10 2 -16 2q-3 0 -5.5 -3.5t-2.5 -6.5q0 -8 7 -8q5 -1 12 -1t12 -1q9 -1 22 -5q19 -9 19 -31q0 -28 -27 -31q-6 -1 -12.5 -1
h-12.5h-14t-13 1q-8 0 -11 -8q-3 -6 -5.5 -12.5t-4.5 -13.5q-4 -9 -7.5 -17.5t-7.5 -17.5q-11 -20 -32 -30q-20 -8 -40.5 -3.5t-32.5 23.5q-16 21 -19 45q-2 16 -4 24q-1 10 -10 10q-11 0 -20 -2.5t-18 -6.5q-20 -5 -34 6q-11 8 -13.5 24t6.5 27q10 11 22 16q8 3 16 4t16 3
q5 2 8.5 2t8.5 1q23 4 19 8q-5 6 -10 3.5t-10 -2.5q-10 0 -19 -1.5t-19 -3.5q-19 -5 -38 12q-8 7 -10.5 17t0 19.5t9 17.5t16.5 11q9 3 16.5 4t15.5 1q32 2 60 6q7 0 7 4q3 9 4 17.5t3 16.5q0 3 -3 3q-4 -2 -7.5 -4.5t-6.5 -4.5q-27 -18 -57 -19q-19 0 -37 6q-34 8 -59 40
q-16 20 -25 44.5t-14 50.5q-4 28 -5 54.5t0 52.5q1 62 21 121q8 24 20 40q26 31 65 24q34 -6 48 -43q5 -11 5 -27q1 -11 0.5 -23t-0.5 -24z" />
    <glyph glyph-name="cent" unicode="&#xa2;" horiz-adv-x="405" 
d="M35 294q-3 52 16 104q22 61 69 103q15 13 33.5 22t40.5 12q10 2 12 5.5t1 13.5q-1 8 1 16l4 16q3 14 14.5 21.5t27.5 5.5q14 -1 23.5 -10t11.5 -23q3 -20 -3 -41q-4 -12 6 -17q14 -8 25.5 -17.5t23.5 -20.5q32 -31 44 -70q5 -17 -3.5 -30.5t-24.5 -17.5q-12 -2 -21 2.5
t-17 13.5q-8 18 -21.5 28t-29 11.5t-29.5 -6.5t-23 -26q-6 -12 -11.5 -30t-9 -38t-4 -40t2.5 -38q6 -30 17 -41t25 -9.5t29.5 12t29.5 22.5q14 13 33 11q25 -2 28 -26q4 -16 -6 -31q-13 -18 -26 -35.5t-32 -30.5l-4 -4q-18 -8 -16 -29q1 -2 0.5 -5t-0.5 -6q-2 -7 -2.5 -14
t-2.5 -13q-5 -12 -14 -19.5t-21 -7.5t-22.5 8t-13.5 20q-2 9 -3 18t-3 18q-1 6 -7 7q-7 1 -14 1.5t-14 1.5q-32 6 -55 24.5t-37 47.5q-14 26 -21.5 54t-6.5 57v20v0z" />
    <glyph glyph-name="slash" unicode="/" horiz-adv-x="527" 
d="M108 -10q-47 3 -67 48q-11 23 -10 45.5t9 45.5q5 11 10 24t10 24q35 72 71.5 143t74.5 140q25 49 51.5 96.5t53.5 95.5q13 24 30 46t37 39q4 5 9.5 8.5t12.5 7.5q15 9 32 8t30.5 -10t22.5 -25.5t9 -38.5q1 -24 -5 -48q-6 -23 -14.5 -44t-19.5 -41q-38 -69 -75 -136
t-73 -136q-27 -48 -52 -97.5t-48 -99.5q-5 -10 -9.5 -20t-10.5 -19q-5 -8 -10 -15.5t-10 -12.5q-25 -29 -59 -28z" />
    <glyph glyph-name="backslash" unicode="\" horiz-adv-x="492" 
d="M455 81q-1 -26 -10 -45.5t-28 -29.5q-44 -22 -79 8q-11 11 -21 24t-18 27q-21 32 -39 64t-32 67q-29 63 -57.5 123t-57.5 123q-19 42 -35 85.5t-30 88.5l-10 34t-5 36q1 46 36 74q7 6 18 9t23 2.5t24 -4.5t20 -13q10 -9 18.5 -19t15.5 -23q14 -27 28.5 -53t26.5 -55
q12 -23 23.5 -46t22.5 -47q28 -62 55 -122t56 -122q17 -38 29 -78.5t23 -81.5q2 -7 2 -14t1 -12z" />
    <glyph glyph-name="colon" unicode=":" horiz-adv-x="224" 
d="M181 195q1 -14 -4.5 -27t-15.5 -23t-23 -15.5t-26 -5.5q-14 0 -27 6t-23 16t-15.5 23t-5.5 27q0 28 20.5 49t49.5 21q28 -1 49.5 -21.5t20.5 -49.5zM181 399q1 -14 -4.5 -27t-15.5 -23t-23 -15.5t-26 -5.5q-14 0 -27 6t-23 16t-15.5 23t-5.5 27q0 28 20.5 49t49.5 21
q28 -1 49.5 -21.5t20.5 -49.5z" />
    <glyph glyph-name="greater" unicode="&#x3e;" horiz-adv-x="379" 
d="M62 187q-28 5 -39 27.5t0 45.5q3 5 7.5 10.5t9.5 10.5q14 14 32 24t36 18l60 27q11 4 3 10q-11 11 -22 19t-21 16q-7 7 -13.5 14t-11.5 16t-5 20t4.5 21t14.5 17.5t25 8.5q14 2 25.5 -2.5t23.5 -9.5q14 -7 28 -15l28 -16q16 -11 31 -21.5t32 -20.5q11 -9 20 -17.5
t17 -20.5q12 -18 11 -37t-12 -38q-15 -25 -49 -38q-15 -5 -30 -9.5t-30 -9.5q-27 -10 -54.5 -19.5t-54.5 -17.5q-23 -8 -51 -13q-11 -2 -15 0z" />
    <glyph glyph-name="parenright" unicode=")" horiz-adv-x="424" 
d="M392 381q1 -60 -17.5 -127.5t-52.5 -127.5t-82.5 -106t-107.5 -64q-16 -5 -31.5 -4.5t-30.5 9.5q-27 16 -28 44q0 14 3 22.5t8 14t12.5 10t16.5 11.5q36 27 67.5 68t53.5 89t31.5 99.5t2 99t-35 88t-78.5 67.5q-8 4 -15 7t-14 8q-27 17 -35.5 44t-0.5 53q8 29 33 46
t55 15q8 -1 17 -3.5t17 -5.5q29 -13 54.5 -29.5t48.5 -38.5q26 -26 44.5 -55.5t31.5 -64.5q12 -30 19 -61.5t12 -63.5q2 -11 2 -22v-22z" />
    <glyph glyph-name="braceright" unicode="}" horiz-adv-x="329" 
d="M251 623q-3 -19 -5 -38t-5 -37q-3 -20 -6.5 -39.5t-6.5 -39.5q-1 -3 -1 -9q0 -9 8 -10q25 -3 43 -18q9 -9 13.5 -20.5t4.5 -24.5t-4.5 -24.5t-13.5 -20.5q-6 -6 -13.5 -11t-15.5 -7q-13 -4 -24 -15q-7 -8 -11 -17.5t-3 -20.5q0 -16 0.5 -32t3.5 -33q3 -13 4 -27l2 -28
q2 -30 -5.5 -58t-28.5 -53q-18 -21 -41.5 -32.5t-52.5 -9.5q-18 2 -32.5 9.5t-24.5 23.5q-11 15 -9 32.5t16 29.5q6 5 12.5 10t14.5 9q17 8 25.5 21.5t10.5 32.5q4 20 2 37.5t-3 35.5q-1 11 -3.5 22t-4.5 22q-4 26 -0.5 50.5t18.5 46.5q3 5 4 7q6 5 1 13q0 1 -0.5 1t-0.5 1
q-17 33 -19.5 68.5t4.5 70.5q2 21 5 42.5t5 42.5q1 5 -1 11t-4 13q-1 4 -6 6t-8.5 2.5t-8.5 2.5q-8 2 -15 5.5t-14 10.5q-11 12 -12 27.5t10 29.5q10 12 28 18q15 6 30 8.5t32 3.5q35 0 60 -24q11 -10 19 -22.5t13 -26.5q14 -34 14 -68z" />
    <glyph glyph-name="bracketright" unicode="]" horiz-adv-x="412" 
d="M369 366q0 -24 -0.5 -46.5t0.5 -45.5q1 -26 -1.5 -52t-4.5 -52q-1 -11 -4 -22t-7 -20q-18 -43 -43 -84q-33 -49 -93 -58q-19 -4 -38 -4.5t-39 -2.5q-14 -1 -29 1.5t-29 4.5q-17 2 -29.5 14.5t-16.5 29.5q-2 18 7 29q9 14 24 20q12 4 25.5 7.5t27.5 4.5q13 1 25 1.5
t24 2.5q10 2 13 3q12 3 12 14q2 14 0 28q-2 29 -1.5 58.5t2.5 59.5q2 53 2.5 104.5t-0.5 104.5q0 26 -2 52t-7 52q-2 8 -4.5 17t-7.5 17q-7 10 -10 15t-6 7.5t-8.5 2.5h-17.5h-26q-18 1 -32.5 16t-15.5 35q0 23 14 37.5t30 16.5q7 1 13.5 1.5t11.5 1.5q16 2 31.5 5t31.5 7
q37 8 71.5 -3t57.5 -47q8 -14 14.5 -27t11.5 -28q7 -24 11.5 -48t7.5 -49q5 -45 4.5 -90.5t-0.5 -90.5z" />
    <glyph glyph-name="quotedbl" unicode="&#x22;" horiz-adv-x="272" 
d="M31 675q1 10 1 19.5t2 17.5q6 30 34 40q10 3 24 -2t19 -13q13 -18 10 -40q-2 -16 -5.5 -32t-8.5 -31q-2 -5 -4.5 -9t-7.5 -8q-13 -13 -28.5 -10t-23.5 14t-9 21q-1 8 -1.5 16.5t-1.5 16.5zM147 675q1 10 1 19.5t2 17.5q6 30 34 40q10 3 24 -2t19 -13q13 -18 10 -40
q-2 -16 -5.5 -32t-8.5 -31q-2 -5 -4.5 -9t-7.5 -8q-13 -13 -28.5 -10t-23.5 14t-9 21q-1 8 -1.5 16.5t-1.5 16.5z" />
    <glyph glyph-name="quotedblleft" unicode="&#x201c;" horiz-adv-x="272" 
d="M31 675q1 10 1 19.5t2 17.5q6 30 34 40q10 3 24 -2t19 -13q13 -18 10 -40q-2 -16 -5.5 -32t-8.5 -31q-2 -5 -4.5 -9t-7.5 -8q-13 -13 -28.5 -10t-23.5 14t-9 21q-1 8 -1.5 16.5t-1.5 16.5zM147 675q1 10 1 19.5t2 17.5q6 30 34 40q10 3 24 -2t19 -13q13 -18 10 -40
q-2 -16 -5.5 -32t-8.5 -31q-2 -5 -4.5 -9t-7.5 -8q-13 -13 -28.5 -10t-23.5 14t-9 21q-1 8 -1.5 16.5t-1.5 16.5z" />
    <glyph glyph-name="quotedblright" unicode="&#x201d;" horiz-adv-x="272" 
d="M31 675q1 10 1 19.5t2 17.5q6 30 34 40q10 3 24 -2t19 -13q13 -18 10 -40q-2 -16 -5.5 -32t-8.5 -31q-2 -5 -4.5 -9t-7.5 -8q-13 -13 -28.5 -10t-23.5 14t-9 21q-1 8 -1.5 16.5t-1.5 16.5zM147 675q1 10 1 19.5t2 17.5q6 30 34 40q10 3 24 -2t19 -13q13 -18 10 -40
q-2 -16 -5.5 -32t-8.5 -31q-2 -5 -4.5 -9t-7.5 -8q-13 -13 -28.5 -10t-23.5 14t-9 21q-1 8 -1.5 16.5t-1.5 16.5z" />
    <glyph glyph-name="quoteleft" unicode="&#x2018;" horiz-adv-x="151" 
d="M31 675q1 10 1 19.5t2 17.5q6 30 34 40q10 3 24 -2t19 -13q13 -18 10 -40q-2 -16 -5.5 -32t-8.5 -31q-2 -5 -4.5 -9t-7.5 -8q-13 -13 -28.5 -10t-23.5 14t-9 21q-1 8 -1.5 16.5t-1.5 16.5z" />
    <glyph glyph-name="quoteright" unicode="&#x2019;" horiz-adv-x="151" 
d="M31 675q1 10 1 19.5t2 17.5q6 30 34 40q10 3 24 -2t19 -13q13 -18 10 -40q-2 -16 -5.5 -32t-8.5 -31q-2 -5 -4.5 -9t-7.5 -8q-13 -13 -28.5 -10t-23.5 14t-9 21q-1 8 -1.5 16.5t-1.5 16.5z" />
    <glyph glyph-name="D" unicode="D" horiz-adv-x="634" 
d="M33 305q0 26 0.5 52.5t-0.5 52.5q0 32 -3 64.5t-6 64.5q-2 23 -2 45t6 45q5 19 14.5 33.5t29.5 22.5q40 17 76 -13q7 -6 12.5 -13t9.5 -15q2 -5 5 -10t5 -10q3 -6 9 -1l4.5 4.5t5.5 4.5q26 20 55.5 30.5t61.5 12.5q48 3 90.5 -12.5t80.5 -43.5q34 -24 55.5 -57t35.5 -71
q10 -26 15.5 -53.5t8.5 -55.5q2 -23 0.5 -45.5t-3.5 -45.5q-1 -13 -4 -25.5t-7 -24.5q-11 -34 -27 -65t-39 -58q-27 -30 -59.5 -49.5t-73.5 -27.5q-35 -7 -70.5 -6t-70.5 12q-13 4 -28 11q-7 4 -13 7.5t-13 7.5q-8 -3 -11.5 -9.5t-9.5 -11.5q-33 -28 -77 -11
q-26 10 -39 29.5t-18 45.5q-6 30 -5 57v132h-1zM208 296v-79q0 -13 12 -20q23 -12 47 -18.5t49 -9.5q12 -2 24.5 -2t24.5 5q38 15 65.5 40.5t41.5 63.5q18 51 17 104q-1 8 -2 16.5t-2 16.5q-3 40 -25 78q-6 11 -13.5 20t-18.5 17q-27 21 -59 33q-18 7 -38.5 8t-40 -5
t-36 -18t-28.5 -30q-1 -2 -2 -3.5t-2 -3.5q-10 -15 -15 -30.5t-3 -34.5q2 -37 3 -73.5t2 -74.5h-1z" />
    <glyph glyph-name="semicolon" unicode=";" horiz-adv-x="224" 
d="M181 399q1 -14 -4.5 -27t-15.5 -23t-23 -15.5t-26 -5.5q-14 0 -27 6t-23 16t-15.5 23t-5.5 27q0 28 20.5 49t49.5 21q28 -1 49.5 -21.5t20.5 -49.5zM189 182q1 -24 -4 -45.5t-14 -41.5q-5 -15 -12.5 -28t-15.5 -26q-8 -11 -18.5 -18t-24.5 -6q-10 0 -18.5 5t-14.5 12.5
t-8 16.5t0 17q3 13 9 23q2 5 5 9.5t5 9.5q4 5 -1 10q-3 2 -7 4q-15 11 -22 27t-8 35q-1 20 7.5 34.5t22.5 26.5q18 15 40 14.5t40.5 -11.5t30 -29.5t8.5 -38.5z" />
    <glyph glyph-name="A" unicode="A" horiz-adv-x="539" 
d="M28 380q2 35 9 67t22 63q17 36 36 69.5t42 65.5q22 30 51 54q41 35 96 43q35 4 71 -5q25 -7 44 -21.5t35 -34.5q24 -28 38.5 -60t23.5 -67q5 -21 8.5 -42t2.5 -42q0 -27 0.5 -54t-1.5 -53q-2 -31 -5 -61.5t-8 -61.5q-5 -23 -8 -47l-6 -48q-7 -67 -33 -130
q-5 -13 -13.5 -23t-22.5 -16q-24 -11 -47 3q-25 16 -26 43q-2 21 -1.5 41.5t3.5 40.5q3 17 6 32.5t7 32.5q5 16 2 18.5t-20 2.5q-26 1 -53 1t-54 1q-7 0 -11 -1q-7 -2 -5 -8q3 -17 6 -33.5t10 -32.5q12 -30 11 -59q-5 -53 -51 -72q-14 -6 -27 -6t-27 4q-36 12 -56 47
q-13 24 -21 53q-6 22 -10 44l-8 44q-6 38 -8.5 75.5t-1.5 75.5v57zM392 428q1 26 -0.5 50.5t-6.5 48.5q-3 20 -10 38t-21 34q-17 18 -30 19.5t-32 -18.5q-40 -43 -61 -97q-15 -41 -24 -82.5t-8 -86.5v-25.5t1 -26.5q0 -9 10 -10q14 -1 28.5 -2t28.5 -1q22 -1 43 -1.5
t43 -0.5q3 0 6.5 -0.5t6.5 0.5q2 0 4.5 2t3.5 4q2 12 3.5 24.5t4.5 24.5q6 27 8.5 53.5t1.5 52.5z" />
    <glyph glyph-name="B" unicode="B" horiz-adv-x="616" 
d="M20 514q-1 17 0 34.5t5 34.5q4 16 12 33q8 16 21.5 25t29.5 12t31.5 -1t27.5 -15q5 -4 8 -8t7 -8q5 -5 7 -11.5t9 -10.5q5 4 10.5 8t10.5 9q25 20 53 32t59 19q21 5 43.5 5t43.5 -5q39 -8 73 -37.5t43 -80.5q4 -20 -0.5 -39.5t-15.5 -37.5q-8 -12 -17.5 -22.5
t-20.5 -20.5q-7 -7 1 -11q20 -11 36 -25t31 -31q19 -21 33 -45t22 -52q11 -42 3 -79.5t-37 -69.5q-19 -21 -47 -37q-30 -17 -62 -29.5t-67 -17.5q-24 -4 -47 1t-46 16q-9 5 -18 11.5t-18 12.5q-5 4 -10 7.5t-10 6.5q-4 4 -4 -1q0 -4 -0.5 -7t-0.5 -7q-2 -35 -24.5 -58
t-57.5 -25q-17 -1 -35 7q-37 17 -49 56q-5 18 -5 35q-2 29 -3.5 57.5t-3.5 57.5q-2 23 -4.5 45t-4.5 45v11q-1 16 -2 31.5t-3 31.5q-2 11 -1.5 22t-0.5 22l-2 52t-3 52zM197 441v-33q0 -6 1 -8q0 -8 8 -4q5 4 10 7.5t10 5.5q51 25 103 29q29 1 52 21l10.5 10.5t10.5 11.5
q13 12 18 30q13 50 -32 70q-21 9 -46 4q-42 -7 -75 -26t-58 -53q-6 -8 -8.5 -11.5t-4 -7t-1 -9t0.5 -15.5v-22h1zM207 282q1 -8 1 -17t2 -18q1 -3 10.5 -12t21.5 -19t23 -19t15 -12q33 -24 67 -11q18 6 34.5 13.5t29.5 21.5l6 6t4 7q3 11 3.5 21.5t-4.5 19.5
q-12 25 -32 40.5t-49 18.5q-7 0 -29 -1t-45 -3.5t-41 -6t-18 -7.5q1 -5 1 -10.5v-11.5z" />
    <glyph glyph-name="C" unicode="C" horiz-adv-x="525" 
d="M204 340q5 -32 13 -59.5t20 -53.5q9 -21 26 -42q11 -14 21 -16.5t25 4.5q22 9 38 27q11 14 21.5 29.5t15.5 34.5q2 4 3.5 7.5t3.5 6.5q6 8 14.5 12.5t20.5 0.5q28 -8 33 -35q2 -11 2.5 -20.5t-2.5 -19.5q-13 -40 -33.5 -73.5t-53.5 -58.5q-22 -16 -47 -23t-55 -3
q-5 1 -9 1.5t-9 2.5q-36 10 -66 29t-56 47q-29 30 -49.5 64.5t-34.5 72.5q-5 16 -8.5 31.5t-5.5 31.5q-7 78 6 151q7 40 20 75.5t37 66.5q51 65 135 77q13 2 26.5 4t27.5 0q29 -2 58.5 -9t57.5 -22q44 -24 70 -61q22 -29 27.5 -59.5t-0.5 -62.5q-6 -35 -41 -46q-19 -7 -40 2
q-16 7 -32 21q-11 11 -21 22.5t-20 23.5q-15 17 -32 17q-6 -1 -12 -0.5t-13 0.5q-30 0 -47 -23q-7 -9 -12.5 -18.5t-8.5 -20.5q-11 -34 -14 -68.5t0 -67.5z" />
    </font>
</defs>
</svg>
